mada-thin.sfdir
StartChar: parenleft
Encoding: 40 40 49
Width: 1000
VWidth: -36
Flags: HW
LayerCount: 2
Fore
SplineSet
564.30859375 741.278320312 m 1
 591.69140625 724.721679688 l 1
 386.436523438 385.260742188 379.44140625 45.630859375 593.772460938 -316.856445312 c 1
 566.227539062 -333.143554688 l 1
 346.55859375 38.369140625 353.563476562 392.739257812 564.30859375 741.278320312 c 1
EndSplineSet
EndChar
StartChar: bracketleft
Encoding: 91 91 50
Width: 1000
VWidth: -36
Flags: HW
LayerCount: 2
Fore
SplineSet
570 696 m 1
 570 664 l 1
 445 664 l 1
 445 -256 l 1
 571 -256 l 1
 571 -288 l 1
 429 -288 l 2
 422.1328125 -288 413 -281.684570312 413 -272 c 2
 413 680 l 2
 413 686.8671875 419.315429688 696 429 696 c 2
 570 696 l 1
EndSplineSet
EndChar
StartChar: braceleft
Encoding: 123 123 48
Width: 1000
VWidth: -36
Flags: HW
LayerCount: 2
Fore
SplineSet
442.305664062 204.491210938 m 1
 489.999023438 183.250976562 516 142.53125 516 87 c 0
 516 -151 l 0
 516 -227.770507812 569.573242188 -258 641 -258 c 1
 641 -290 l 1
 560.426757812 -290 484 -250.229492188 484 -151 c 0
 484 87 l 0
 484 142.069335938 454.072265625 174.231445312 397.962890625 184.655273438 c 0
 386.138671875 186.852539062 373.111328125 188 359 188 c 1
 359 220 l 1
 373.247070312 220 386.34765625 221.2890625 398.215820312 223.69921875 c 0
 454.348632812 235.09765625 484 270.184570312 484 322 c 0
 484 574 l 0
 484 657.66796875 561.163085938 699.106445312 641.420898438 696.994140625 c 1
 640.579101562 665.005859375 l 1
 568.836914062 666.893554688 516 632.33203125 516 574 c 0
 516 322 l 0
 516 268.948242188 488.788085938 226.303710938 442.305664062 204.491210938 c 1
EndSplineSet
EndChar
StartChar: uni062D
Encoding: 1581 1581 1
Width: 1000
VWidth: -36
Flags: HW
LayerCount: 2
Fore
SplineSet
643 -258 m 1
 643 -290 l 1
 402 -290 l 2
 345 -291 302 -249 302 -194 c 0
 302 -79 l 0
 302 -25 349 33 410 33 c 2
 663 33 l 17
 621 42 590 72 563 101 c 0
 522 146 481 219 375 259 c 1
 387 289 l 1
 503 245 550 164 587 123 c 0
 624 83 649 63 698 63 c 1
 698 47 l 0
 698 34 686 1 655 1 c 2
 410 1 l 2
 369 1 334 -41 334 -79 c 0
 334 -194 l 0
 334 -231 361 -259 402 -258 c 2
 643 -258 l 1
EndSplineSet
EndChar
StartChar: uni062F
Encoding: 1583 1583 2
Width: 1000
VWidth: -36
Flags: HW
LayerCount: 2
Fore
SplineSet
464.844726562 279.689453125 m 1
 479.155273438 308.310546875 l 1
 547.007303511 274.384531838 671 205.085200008 674 68 c 0
 674.628913326 39.2617636214 654.805664062 0 606 0 c 2
 342 0 l 1
 342 32 l 1
 606 32 l 2
 632.951171875 32 641.77734375 50.1796875 641.999023438 67.6630859375 c 0
 635.918945312 185.927734375 537.345703125 243.438476562 464.844726562 279.689453125 c 1
EndSplineSet
EndChar
StartChar: uni0631
Encoding: 1585 1585 3
Width: 1000
VWidth: -36
Flags: HW
LayerCount: 2
Fore
SplineSet
527 151 m 1
 559 151 l 1
 559 -37 l 2
 559 -119.111328125 539.268554688 -200 444 -200 c 2
 372 -200 l 1
 372 -168 l 1
 444 -168 l 2
 510.731445312 -168 527 -118.888671875 527 -37 c 2
 527 151 l 1
EndSplineSet
EndChar
StartChar: uni0633
Encoding: 1587 1587 5
Width: 1000
VWidth: -36
Flags: HW
LayerCount: 2
Fore
SplineSet
832 340 m 1
 864 340 l 1
 864 68 l 2
 864 29.951171875 833.309570312 0 794 0 c 2
 679 0 l 1
 679 32 l 1
 794 32 l 2
 816.690429688 32 832 48.048828125 832 68 c 2
 832 340 l 1
658 340 m 1
 690 340 l 1
 690 68 l 2
 690 30.3623046875 660.595703125 0 621 0 c 2
 509 0 l 1
 509 32 l 1
 621 32 l 2
 643.404296875 32 658 47.6376953125 658 68 c 2
 658 340 l 1
485 342 m 1
 517 342 l 1
 517 -133 l 2
 517 -170.637695312 487.595703125 -201 448 -201 c 2
 181 -201 l 2
 142.857421875 -201 116 -164.8984375 116 -129 c 2
 116 149 l 1
 148 149 l 1
 148 -129 l 2
 148 -151.1015625 165.142578125 -169 181 -169 c 2
 448 -169 l 2
 470.404296875 -169 485 -153.362304688 485 -133 c 2
 485 342 l 1
EndSplineSet
EndChar
StartChar: uni0635
Encoding: 1589 1589 6
Width: 1000
VWidth: -36
Flags: HW
LayerCount: 2
Fore
SplineSet
441 241 m 1
 473 241 l 1
 473 -133 l 2
 473 -170.637695312 443.595703125 -201 404 -201 c 2
 137 -201 l 2
 98.857421875 -201 72 -164.8984375 72 -129 c 2
 72 149 l 1
 104 149 l 1
 104 -129 l 2
 104 -151.1015625 121.142578125 -169 137 -169 c 2
 404 -169 l 2
 426.404296875 -169 441 -153.362304688 441 -133 c 2
 441 241 l 1
457 32 m 1
 457 0 l 1
 829 0 l 2
 868.217773438 0 899.318359375 30.052734375 897.9921875 68.5146484375 c 2
 895.994140625 135.43359375 l 0
 893.924804688 220.283203125 866.912109375 273.510742188 808.880859375 297.883789062 c 0
 676.301757812 347.029296875 570.653320312 181.693359375 470.029296875 42.3681640625 c 1
 496 24 l 17
 599.791618002 165.722157336 695.140131022 305.228465345 797.122070312 268.115234375 c 0
 839.893554688 249.84375 862.08203125 213.456054688 864.006835938 134.522460938 c 0
 866.009765625 67.4482421875 l 2
 866.680664062 47.978515625 851.783203125 32 829 32 c 2
 457 32 l 1
EndSplineSet
EndChar
StartChar: uni0637
Encoding: 1591 1591 7
Width: 1000
VWidth: -36
Flags: HW
LayerCount: 2
Fore
SplineSet
241 32 m 1
 241 0 l 1
 705 0 l 2
 744.217773438 0 775.318359375 30.052734375 773.9921875 68.5146484375 c 2
 771.994140625 135.43359375 l 0
 769.924804688 220.283203125 742.912109375 273.510742188 684.880859375 297.883789062 c 0
 552.301757812 347.029296875 446.653320312 181.693359375 346.029296875 42.3681640625 c 1
 372 24 l 17
 475.791992188 165.721679688 571.139648438 305.228515625 673.122070312 268.115234375 c 0
 715.893554688 249.84375 738.08203125 213.456054688 740.006835938 134.522460938 c 0
 742.009765625 67.4482421875 l 2
 742.680664062 47.978515625 727.783203125 32 705 32 c 2
 241 32 l 1
345 625 m 1
 345 22 l 1
 377 22 l 1
 377 625 l 1
 345 625 l 1
EndSplineSet
EndChar
StartChar: uni0639
Encoding: 1593 1593 8
Width: 1000
VWidth: -36
Flags: HW
LayerCount: 2
Fore
SplineSet
665 -240 m 1
 665 -272 l 1
 377 -272 l 2
 342.919921875 -272 319 -243.108398438 319 -209 c 2
 319 -31.6923828125 l 2
 320.188476562 -0.787109375 337.161132812 32 378.971679688 32 c 2
 664.944335938 33 l 1
 665.055664062 1 l 1
 379.055664062 0 l 2
 358.975585938 0 352.065429688 -10.3388671875 351 -32.2939453125 c 2
 351 -209 l 2
 351 -228.891601562 363.080078125 -240 377 -240 c 2
 665 -240 l 1
632.091796875 233.794921875 m 1
 619.908203125 204.205078125 l 1
 603.131835938 211.11328125 587.915039062 216.796875 573.766601562 220.569335938 c 0
 511.732421875 238.06640625 467.768554688 230.306640625 447.32421875 211.510742188 c 0
 420.252929688 186.622070312 419.947265625 124.307617188 508.770507812 27.837890625 c 1
 485.229492188 6.162109375 l 1
 396.026367188 103.044921875 375.458984375 188.909179688 425.666015625 235.067382812 c 0
 459.036132812 265.747070312 516.189453125 270.057617188 582.233398438 251.430664062 c 0
 598.084960938 247.203125 614.868164062 240.88671875 632.091796875 233.794921875 c 1
EndSplineSet
EndChar
StartChar: uni0643
Encoding: 1603 1603 10
Width: 1000
VWidth: -36
Flags: HW
LayerCount: 2
Fore
SplineSet
329.858398438 33.029296875 m 1
 354.141601562 0.9697265625 l 1
 312.141601562 0.970703125 l 1
 287.858398438 33.029296875 l 1
 329.858398438 33.029296875 l 1
672 623 m 1
 704 623 l 1
 704 71 l 2
 704 36.45703125 677.778320312 1 634 1 c 2
 312 1 l 1
 312 33 l 1
 634 33 l 2
 658.221679688 33 672 51.54296875 672 71 c 2
 672 623 l 1
549 410 m 1
 549 378 l 1
 455.756835938 378 l 1
 489.54296875 306.674804688 l 2
 492.312792931 300.442260625 499.666666667 288.333333333 491.333333333 276.317696178 c 0
 485.957598843 268.566551168 474.202387688 267 468 267 c 0
 357 267 l 1
 357 299 l 1
 457.76953125 299 l 1
 424.45703125 369.325195312 l 2
 424.132933826 370.055232944 413.37081166 389.449978769 424.563034346 401.5 c 0
 429.676818105 407.005716299 439.542459535 410 450 410 c 2
 549 410 l 1
EndSplineSet
EndChar
StartChar: uni0645
Encoding: 1605 1605 11
Width: 1000
VWidth: -36
Flags: HW
LayerCount: 2
Fore
SplineSet
291 1 m 1
 291 33 l 1
 385 33 l 2
 417.461914062 33 426.043945312 51.7529296875 427 71.3095703125 c 2
 427 201.922851562 l 2
 426.6640625 236.845703125 439.626953125 265.84375 460.374023438 285.911132812 c 0
 508.783203125 332.735351562 595.698242188 331.291015625 648.583007812 276.038085938 c 0
 701.701171875 220.048828125 725.689453125 170.041015625 725.888671875 126.35546875 c 0
 726.272460938 42.14453125 640.478515625 1 555 1 c 0
 457 1 l 1
 457 33 l 1
 555 33 l 0
 634.90625 33 694.146484375 69.86328125 693.889648438 126.209960938 c 0
 693.745117188 157.84765625 675.591796875 201.075195312 625.392578125 253.98828125 c 0
 584.293945312 296.926757812 517.088867188 296.249023438 482.62109375 262.91015625 c 0
 468.13671875 248.900390625 458.739257812 229.200195312 459 202.077148438 c 2
 459 70.6923828125 l 2
 457.751953125 38.2421875 436.69140625 1 385 1 c 2
 291 1 l 1
EndSplineSet
EndChar
StartChar: uni0647
Encoding: 1607 1607 12
Width: 1000
VWidth: -36
Flags: HW
LayerCount: 2
Fore
SplineSet
593 328 m 1
 625 328 l 1
 625 69 l 2
 625 32.0087890625 593.991210938 1 557 1 c 2
 447 1 l 2
 418.76953125 1 393.802734375 11.1591796875 375.66015625 27.591796875 c 0
 341.641509957 58.4038208381 329.333135475 120.604762581 373.029296875 161.646484375 c 0
 443.544921875 228.07421875 496.76171875 260.829101562 540.23046875 365.154296875 c 1
 569.76953125 352.845703125 l 1
 523.333007812 241.3984375 463.213867188 202.516601562 395.426757812 138.783203125 c 0
 367.786132812 107.962890625 373.478515625 72.3662109375 397.5703125 50.9248046875 c 0
 409.734375 40.0986328125 426.712890625 33 447 33 c 2
 557 33 l 2
 576.008789062 33 593 49.9912109375 593 69 c 2
 593 328 l 1
EndSplineSet
EndChar
StartChar: uni0648
Encoding: 1608 1608 13
Width: 1000
VWidth: -36
Flags: HW
LayerCount: 2
Fore
SplineSet
585 196.948242188 m 2
 584.65234375 250.416015625 552.514648438 272.252929688 509.619140625 271.920898438 c 0
 445.213867188 271.421875 362.127929688 216.110351562 352.958007812 117.827148438 c 0
 350.967773438 76.0947265625 388.517578125 32 441 32 c 2
 601 32 l 1
 601 0 l 1
 441 0 l 2
 371.155273438 0 317.448242188 57.9013671875 321.041015625 120.168945312 c 0
 331.3515625 236.166015625 429.032226562 303.296875 509.37109375 303.919921875 c 0
 566.14453125 304.359375 616.532226562 269.102539062 617 197.051757812 c 2
 617 -37 l 2
 617 -118.215820312 556.362304688 -199 463 -199 c 2
 270 -199 l 1
 270 -167 l 1
 463 -167 l 2
 535.637695312 -167 585 -103.784179688 585 -37 c 2
 585 196.948242188 l 2
EndSplineSet
EndChar
StartChar: uni0649
Encoding: 1609 1609 14
Width: 1000
VWidth: -36
Flags: HW
LayerCount: 2
Fore
SplineSet
739 33 m 1
 739 1 l 1
 601 1 l 2
 570.914171616 1 550.054661681 -18.9551467844 576.33203125 -50.8056640625 c 2
 687.37890625 -184.862304688 l 2
 718.340576683 -223.107888475 686.464374908 -273 632 -273 c 2
 402 -273 l 2
 333.74609375 -273 245 -235.1796875 245 -132 c 2
 245 30 l 1
 277 30 l 1
 277 -132 l 2
 277 -210.8203125 342.25390625 -241 402 -241 c 2
 632 -241 l 2
 664.351524589 -241 674.794683133 -220.17914897 662.62109375 -205.137695312 c 2
 551.678710938 -71.20703125 l 2
 508.443189345 -18.7998410419 545.912490354 33 601 33 c 2
 739 33 l 1
EndSplineSet
EndChar
StartChar: uni064B
Encoding: 1611 1611 166
Width: 0
VWidth: 0
Flags: HW
LayerCount: 2
Back
SplineSet
-76.0498046875 35.9248046875 m 5
 76.0498046875 104.825195312 l 5
 76.0498046875 69.0751953125 l 5
 -76.0498046875 0.1748046875 l 5
 -76.0498046875 35.9248046875 l 5
-76.0498046875 106.125 m 5
 76.0498046875 175.025390625 l 5
 76.0498046875 139.275390625 l 5
 -76.0498046875 70.375 l 5
 -76.0498046875 106.125 l 5
EndSplineSet
Fore
Refer: 169 1614 N 1 0 0 1 0 70 2
Refer: 169 1614 N 1 0 0 1 0 0 2
EndChar
StartChar: uni064C
Encoding: 1612 1612 167
Width: 0
VWidth: 0
Flags: HW
LayerCount: 2
Back
SplineSet
-66.416015625 25.4951171875 m 5
 66.416015625 74 l 21
-76.0498046875 10.650390625 m 2
 -96.849609375 86.0498046875 l 1
 -70.849609375 94.5 l 1
 -52 32.75 l 1
 -1.2998046875 58.099609375 l 1
 -6.5 63.2998046875 -11.2666015625 72.18359375 -15.599609375 84.75 c 128
 -19.93359375 97.31640625 -22.099609375 109.883789062 -22.099609375 122.450195312 c 0
 -22.099609375 138.049804688 -17.875 150.833984375 -9.4248046875 160.799804688 c 128
 -0.974609375 170.766601562 12.783203125 175.75 31.849609375 175.75 c 0
 52.650390625 175.75 68.68359375 169.68359375 79.9501953125 157.549804688 c 128
 91.216796875 145.416015625 96.849609375 129.166015625 96.849609375 108.799804688 c 0
 96.849609375 96.666015625 94.466796875 82.7998046875 89.7001953125 67.2001953125 c 1
 -55.900390625 1.5498046875 l 2
 -57.2001953125 0.68359375 -59.150390625 0.25 -61.75 0.25 c 0
 -65.216796875 0.25 -67.3837890625 0.68359375 -68.25 1.5498046875 c 1
 -71.716796875 2.849609375 -74.31640625 5.8837890625 -76.0498046875 10.650390625 c 2
61.099609375 89.2998046875 m 1
 62.833984375 99.7001953125 63.7001953125 106.849609375 63.7001953125 110.75 c 0
 63.7001953125 133.716796875 53.9501953125 145.200195312 34.4501953125 145.200195312 c 0
 18.416015625 145.200195312 10.400390625 137.18359375 10.400390625 121.150390625 c 0
 10.400390625 113.349609375 12.2412109375 104.68359375 15.9248046875 95.150390625 c 128
 19.6083984375 85.6162109375 23.400390625 78.033203125 27.2998046875 72.400390625 c 1
 61.099609375 89.2998046875 l 1
EndSplineSet
Fore
SplineSet
2.11700098592 67.5993202987 m 1
 -6.1366231002 90.2750594351 l 1
 -13.9411276809 112.865274459 -2.6149315406 137.509924134 19.8887840934 144.25998165 c 1
 54.8456405015 153.574354982 84.5959364462 132.643331152 93.6922262192 108.318392456 c 0
 100.493898332 90.1296296408 94.09274183 67.0217791611 70.6177652832 58.4775897866 c 0
 -21.9420371113 24.7890287563 l 0
 -46.1070238911 15.9942332645 -77.9051890453 25.0455885718 -88.5477422035 54.2873470568 c 0
 -98.2098515785 80.8332454943 l 0
 -101.190604695 89.0226342125 -96.8366119739 98.3599578365 -88.6472232557 101.340710953 c 0
 -80.4578345375 104.32146407 -71.1205109135 99.9674713489 -68.1397577965 91.7780826307 c 0
 -58.4776484215 65.2321841932 l 0
 -54.9268422047 55.4758958032 -43.4906323589 50.9999073605 -32.8860878887 54.8594087437 c 0
 2.11700098592 67.5993202987 l 1
32.1872120421 78.5438352417 m 1
 59.6732503418 88.5478008384 l 0
 65.7124853493 90.7459017599 65.6655116321 91.9057125889 63.7193499324 97.1100613091 c 0
 60.1563714566 106.638037568 46.0764641864 117.793136911 28.6835640036 113.486470573 c 1
 26.1470383759 112.612035568 21.839473969 107.294214432 24.0233418502 100.97298744 c 1
 32.1872120421 78.5438352417 l 1
EndSplineSet
EndChar
StartChar: uni064E
Encoding: 1614 1614 168
Width: 0
VWidth: 0
Flags: HW
AnchorPoint: "arMarkAbove" 0 0 mark 0
AnchorPoint: "arMarkAboveDot" 0 0 mark 0
LayerCount: 2
Fore
SplineSet
-81 11 m 0
 -84 19 -80 29 -72 32 c 0
 61 80 l 0
 69 83 78 78 81 70 c 0
 84 62 80 53 72 50 c 0
 -61 1 l 0
 -69 -2 -78 3 -81 11 c 0
EndSplineSet
EndChar
StartChar: uni064F
Encoding: 1615 1615 170
Width: 0
VWidth: 0
Flags: HW
LayerCount: 2
Back
SplineSet
-76.0498046875 29.150390625 m 5
 -22.099609375 56.4501953125 l 5
 -27.2998046875 61.650390625 -32.06640625 70.533203125 -36.400390625 83.099609375 c 132
 -40.7333984375 95.666015625 -42.900390625 108.233398438 -42.900390625 120.799804688 c 4
 -42.900390625 136.400390625 -38.6748046875 149.18359375 -30.224609375 159.150390625 c 132
 -21.775390625 169.116210938 -8.0166015625 174.099609375 11.0498046875 174.099609375 c 4
 31.849609375 174.099609375 47.8837890625 168.033203125 59.150390625 155.900390625 c 132
 70.416015625 143.766601562 76.0498046875 127.516601562 76.0498046875 107.150390625 c 4
 76.0498046875 95.0166015625 73.666015625 81.150390625 68.900390625 65.5498046875 c 5
 -76.0498046875 -0.099609375 l 5
 -76.0498046875 29.150390625 l 5
40.2998046875 87.650390625 m 5
 42.033203125 98.0498046875 42.900390625 105.200195312 42.900390625 109.099609375 c 4
 42.900390625 132.06640625 33.150390625 143.549804688 13.650390625 143.549804688 c 4
 -2.3837890625 143.549804688 -10.400390625 135.533203125 -10.400390625 119.5 c 4
 -10.400390625 111.700195312 -8.55859375 103.033203125 -4.875 93.5 c 132
 -1.19140625 83.966796875 2.599609375 76.3837890625 6.5 70.75 c 5
 40.2998046875 87.650390625 l 5
EndSplineSet
Fore
SplineSet
-27.6894090236 58.5625539006 m 1
 -35.9432637252 81.2389266226 l 1
 -43.7477683059 103.829141646 -32.4215721656 128.473791322 -9.91785653161 135.223848838 c 1
 25.0389683897 144.53821378 54.7896118099 123.607267994 63.8860043243 99.2820575243 c 0
 70.6877858451 81.0930043583 64.2866054837 57.9852563506 40.8110649054 49.4404586638 c 0
 -70.5424507196 8.91213835132 l 0
 -78.7318832212 5.93150552855 -88.0691428884 10.2856354055 -91.0497757112 18.4750679071 c 0
 -94.0304085339 26.6645004087 -89.676278657 36.0017600759 -81.4868461554 38.9823928987 c 0
 -27.6894090236 58.5625539006 l 1
2.38084553051 69.506949339 m 1
 29.8666694696 79.5107132112 l 0
 35.9061371149 81.7090024899 35.8592862934 82.8693875029 33.913128487 88.0737251755 c 0
 30.3501006564 97.6018322522 16.2698635208 108.757012706 -1.12307674116 104.450337719 c 1
 -3.65960214927 103.57590279 -7.96716665597 98.25808162 -5.7832987748 91.9368546274 c 1
 2.38084553051 69.506949339 l 1
EndSplineSet
EndChar
StartChar: uni0651
Encoding: 1617 1617 172
Width: 0
VWidth: 0
Flags: HW
LayerCount: 2
Back
SplineSet
-97.63671875 16.888671875 m 1
 -78.0791015625 23.8212890625 l 2
 -70.9208984375 26.3583984375 -65 32.0498046875 -65 39.2998046875 c 2
 -65 105.299804688 l 1
-32.63671875 31.888671875 m 1
 -13.0791015625 38.8212890625 l 2
 -5.9208984375 41.3583984375 0 47.0498046875 0 54.2998046875 c 2
 0 120.299804688 l 1
34.36328125 46.888671875 m 1
 53.9208984375 53.8212890625 l 2
 61.0791015625 56.3583984375 67 62.0498046875 67 69.2998046875 c 2
 67 135.299804688 l 1
39.3466796875 134.59375 m 1
 62.0654296875 70.5009765625 l 2
 64.48828125 63.66796875 61.2255859375 56.41015625 53.9208984375 53.8212890625 c 2
 34.36328125 46.888671875 l 1
-4.009765625 119.224609375 m 1
 18.79296875 54.896484375 l 2
 21.21484375 48.0634765625 17.8681640625 41.0419921875 10.5634765625 38.4521484375 c 2
 -8.7578125 31.603515625 l 1
-46.8955078125 104.0234375 m 1
 -24.17578125 39.9306640625 l 2
 -21.75390625 33.09765625 -25.0166015625 25.83984375 -32.3212890625 23.2509765625 c 2
 -74.5 8.2998046875 l 1
-53.9501953125 -0.150390625 m 0
 -70.849609375 -0.150390625 -79.2998046875 12.416015625 -79.2998046875 37.5498046875 c 0
 -79.2998046875 53.150390625 -78.8662109375 65.5 -78 74.599609375 c 1
 -51.349609375 86.9501953125 l 1
 -51.349609375 49.900390625 l 2
 -51.349609375 36.900390625 -47.2333984375 30.400390625 -39 30.400390625 c 0
 -35.966796875 30.400390625 -33.583984375 30.833984375 -31.849609375 31.7001953125 c 0
 -25.349609375 34.2998046875 -20.3662109375 38.6337890625 -16.900390625 44.7001953125 c 128
 -13.43359375 50.7666015625 -11.7001953125 57.4833984375 -11.7001953125 64.849609375 c 2
 -11.7001953125 93.4501953125 l 1
 13.650390625 104.5 l 1
 13.650390625 72.650390625 l 2
 13.650390625 69.18359375 14.9501953125 66.2587890625 17.5498046875 63.875 c 128
 20.150390625 61.4912109375 23.18359375 60.2998046875 26.650390625 60.2998046875 c 0
 29.68359375 60.2998046875 32.5 60.9501953125 35.099609375 62.25 c 2
 50.7001953125 69.400390625 l 1
 50.7001953125 133.099609375 l 1
 75.400390625 144.150390625 l 1
 78 131.583984375 79.2998046875 117.5 79.2998046875 101.900390625 c 2
 79.2998046875 54.4501953125 l 1
 37.0498046875 35.599609375 l 2
 29.25 32.56640625 23.400390625 31.0498046875 19.5 31.0498046875 c 0
 13 31.0498046875 7.7998046875 33.8662109375 3.900390625 39.5 c 1
 1.7333984375 31.2666015625 -2.05859375 24.224609375 -7.474609375 18.375 c 128
 -12.8916015625 12.525390625 -21.4501953125 7.650390625 -33.150390625 3.75 c 0
 -40.9501953125 1.150390625 -47.8837890625 -0.150390625 -53.9501953125 -0.150390625 c 0
EndSplineSet
Fore
SplineSet
-32.6156168377 22.3955380464 m 0
 -30.2214261213 14.0158705389 -35.2247944462 5.00980755417 -43.6044619536 2.61561683775 c 0
 -53.5749727414 -0.233100530195 -65.2109495192 0.982445912102 -72.8226686118 8.89704191778 c 0
 -80.5022653856 16.8822165166 -81 26.1915693533 -81 32 c 0
 -81 98 l 0
 -81 106.714985756 -73.7149857557 114 -65 114 c 0
 -56.2850142443 114 -49 106.714985756 -49 98 c 0
 -49 34.0183322218 l 1
 -41.9681891015 33.9042335232 -34.8093313978 30.0735390067 -32.6156168377 22.3955380464 c 0
-11.3545116293 13.6381256764 m 2
 -42.5020772454 2.85627604003 l 0
 -50.7376174148 0.00551213524846 -60.0048595378 4.50674402357 -62.8556234426 12.7422841929 c 0
 -65.7063873474 20.9778243623 -61.2051554591 30.2450664853 -52.9696152897 33.0958303901 c 0
 -18.2337690221 45.119777175 l 0
 -17.9698807574 45.2111231128 -17.5944798345 45.3275426514 -17.3955380464 45.3843831623 c 0
 -16.9386964211 45.5149093409 -16.256306913 45.914796705 -16 46.1135514521 c 1
 -16 111 l 0
 -16 119.714985756 -8.71498575571 127 0 127 c 0
 8.71498575571 127 16 119.714985756 16 111 c 0
 16 45 l 0
 16 29.1968854901 0.966101402376 17.8180926934 -11.3545116293 13.6381256764 c 2
12.880222825 39.7662309779 m 0
 10.0294589202 48.0017711472 14.5306908085 57.2690132703 22.7662309779 60.119777175 c 0
 48.7670767767 69.1200699251 l 0
 49.7417025276 69.4573793258 50.5925911381 69.9725255838 51 70.2596712004 c 1
 51 135 l 0
 51 143.714985756 58.2850142443 151 67 151 c 0
 75.7149857557 151 83 143.714985756 83 135 c 0
 83 69 l 0
 83 52.2858585115 69.9034246456 42.5728967724 59.2329232233 38.8799300749 c 0
 33.2337690221 29.880222825 l 0
 24.9982288528 27.0294589202 15.7309867297 31.5306908085 12.880222825 39.7662309779 c 0
EndSplineSet
EndChar
StartChar: uni0652
Encoding: 1618 1618 173
Width: 0
VWidth: 662
Flags: HW
LayerCount: 2
Back
SplineSet
-49.400390625 21.5 m 128
 -62.833984375 36.0166015625 -69.5498046875 53.458984375 -69.5498046875 73.8251953125 c 256
 -69.5498046875 94.19140625 -62.833984375 111.525390625 -49.400390625 125.825195312 c 128
 -35.966796875 140.125 -19.716796875 147.275390625 -0.650390625 147.275390625 c 0
 18.849609375 147.275390625 35.4248046875 140.125 49.0751953125 125.825195312 c 128
 62.724609375 111.525390625 69.5498046875 94.19140625 69.5498046875 73.8251953125 c 256
 69.5498046875 53.458984375 62.6162109375 36.0166015625 48.75 21.5 c 128
 34.8837890625 6.9833984375 18.416015625 -0.275390625 -0.650390625 -0.275390625 c 256
 -19.716796875 -0.275390625 -35.966796875 6.9833984375 -49.400390625 21.5 c 128
26.3251953125 44.5751953125 m 128
 33.474609375 52.80859375 37.0498046875 62.55859375 37.0498046875 73.8251953125 c 256
 37.0498046875 85.091796875 33.474609375 94.7333984375 26.3251953125 102.75 c 128
 19.1748046875 110.766601562 10.400390625 114.775390625 0 114.775390625 c 256
 -10.400390625 114.775390625 -19.1748046875 110.766601562 -26.3251953125 102.75 c 128
 -33.474609375 94.7333984375 -37.0498046875 85.091796875 -37.0498046875 73.8251953125 c 256
 -37.0498046875 62.55859375 -33.474609375 52.80859375 -26.3251953125 44.5751953125 c 128
 -19.1748046875 36.341796875 -10.400390625 32.224609375 0 32.224609375 c 256
 10.400390625 32.224609375 19.1748046875 36.341796875 26.3251953125 44.5751953125 c 128
EndSplineSet
Fore
SplineSet
-39 73.6361999512 m 0
 -39 52.1145788673 -21.5225161071 34.6361999512 0 34.6361999512 c 0
 21.5216210838 34.6361999512 39 52.1136838441 39 73.6361999512 c 0
 39 95.157821035 21.5225161071 112.636199951 0 112.636199951 c 0
 -21.5216210838 112.636199951 -39 95.1587160583 -39 73.6361999512 c 0
-71 73.6361999512 m 0
 -71 112.833683844 -39.1983789162 144.636199951 0 144.636199951 c 0
 39.1974838929 144.636199951 71 112.834578867 71 73.6361999512 c 0
 71 34.4387160583 39.1983789162 2.63619995117 0 2.63619995117 c 0
 -39.1974838929 2.63619995117 -71 34.437821035 -71 73.6361999512 c 0
EndSplineSet
EndChar
StartChar: uni0653
Encoding: 1619 1619 128
Width: 0
VWidth: 0
Flags: HW
LayerCount: 2
Fore
SplineSet
-123 0 m 1
 -155 0 l 1
 -155 53 l 2
 -155 85.1103515625 -133.352539062 106 -100 106 c 2
 139 106 l 1
 139 74 l 1
 -100 74 l 2
 -118.647460938 74 -123 68.8896484375 -123 53 c 2
 -123 0 l 1
EndSplineSet
EndChar
StartChar: uni0660
Encoding: 1632 1632 174
Width: 460
VWidth: 0
Flags: HW
LayerCount: 2
Fore
SplineSet
195 329 m 0
 195 348.3203125 210.6796875 364 230 364 c 0
 249.3203125 364 265 348.3203125 265 329 c 0
 265 309.6796875 249.3203125 294 230 294 c 0
 210.6796875 294 195 309.6796875 195 329 c 0
EndSplineSet
EndChar
StartChar: uni0661
Encoding: 1633 1633 15
Width: 1000
VWidth: 0
Flags: HW
LayerCount: 2
Fore
SplineSet
484 659 m 1
 516 659 l 1
 516 0 l 1
 484 0 l 1
 484 659 l 1
EndSplineSet
EndChar
StartChar: uni0662
Encoding: 1634 1634 16
Width: 460
VWidth: 0
Flags: HW
LayerCount: 2
Fore
SplineSet
351 620 m 1
 351 588 l 1
 177 588 l 2
 157.048828125 588 141 572.690429688 141 550 c 2
 141 0 l 1
 109 0 l 1
 109 550 l 2
 109 589.309570312 138.951171875 620 177 620 c 2
 351 620 l 1
EndSplineSet
EndChar
StartChar: uni0663
Encoding: 1635 1635 17
Width: 1000
VWidth: 0
Flags: HW
LayerCount: 2
Fore
SplineSet
668 660 m 1
 700 660 l 1
 700 477 l 2
 700 439.362171374 670.595501685 409 631 409 c 2
 508 409 l 2
 508 441 l 2
 631 441 l 2
 653.404498315 441 668 456.637828626 668 477 c 2
 668 660 l 1
484 660 m 1
 516 660 l 1
 516 477 l 2
 516 439.362171374 486.595501685 409 447 409 c 2
 317 409 l 1
 317 441 l 1
 447 441 l 2
 469.404498315 441 484 456.637828626 484 477 c 2
 484 660 l 1
300 660 m 1
 332 660 l 1
 332 0 l 1
 300 0 l 1
 300 660 l 1
EndSplineSet
EndChar
StartChar: uni0664
Encoding: 1636 1636 18
Width: 460
VWidth: -36
Flags: HW
LayerCount: 2
Fore
SplineSet
274.3828125 584.868164062 m 1
 293.3984375 559.131835938 l 1
 136.336914062 443.0859375 l 0
 124.252929688 434.334960938 114.64453125 426.90234375 111.357421875 422.275390625 c 0
 109.967773438 420.318359375 102.977539062 418.391601562 127.955078125 401.184570312 c 0
 255.955078125 313.184570312 l 2
 263.111328125 308.264648438 265.081054688 298.14453125 260.033203125 290.875 c 2
 125.97265625 97.787109375 l 2
 113.953125 80.9599609375 98.0673828125 52.203125 98.0537109375 39.4306640625 c 0
 98.0498046875 35.537109375 95.37109375 33 110.918945312 33 c 2
 393.947265625 32 l 1
 393.833984375 0 l 1
 110.833984375 1 l 2
 83.6943359375 1 66.0302734375 17.181640625 66.0537109375 39.46484375 c 0
 66.083984375 67.888671875 87.369140625 98.7978515625 99.80859375 116.212890625 c 2
 224.581054688 295.921875 l 1
 109.826171875 374.815429688 l 2
 56.99609375 411.208984375 82.3583984375 443.5078125 117.444335938 468.9140625 c 2
 274.3828125 584.868164062 l 1
EndSplineSet
EndChar
StartChar: uni0665
Encoding: 1637 1637 19
Width: 460
VWidth: -36
Flags: HW
LayerCount: 2
Fore
SplineSet
278.8203125 517.344726562 m 0
 245.911132812 537.262695312 211.225585938 536.5234375 177.952148438 514.633789062 c 0
 120.026367188 476.649414062 63.6044921875 339.857421875 61.873046875 220.099609375 c 0
 60.1767578125 102.791992188 116.505859375 19.1533203125 231.047851562 20 c 0
 356.819335938 20.9296875 400.252929688 109.770507812 399.39453125 219.795898438 c 0
 398.431640625 343.217773438 336.428710938 481.857421875 278.8203125 517.344726562 c 0
295.49609375 544.655273438 m 0
 369.571289062 499.025390625 430.374023438 350.680664062 431.393554688 220.045898438 c 0
 432.315429688 101.805664062 379.991210938 -10.9736328125 231.268554688 -12 c 0
 92.599609375 -12.9560546875 27.9873046875 85.177734375 28.599609375 220.099609375 c 0
 29.193359375 350.809570312 91.2021484375 496.013671875 160.364257812 541.366210938 c 0
 203.090820312 569.4765625 252.388671875 570.747070312 295.49609375 544.655273438 c 0
EndSplineSet
EndChar
StartChar: uni0666
Encoding: 1638 1638 20
Width: 396
VWidth: 0
Flags: HW
LayerCount: 2
Fore
SplineSet
30 589 m 1
 30 621 l 1
 298 621 l 0
 336.048828125 621 366 590.309570312 366 551 c 0
 366 0 l 1
 334 0 l 1
 334 551 l 0
 334 573.690429688 317.951171875 589 298 589 c 0
 30 589 l 1
EndSplineSet
EndChar
StartChar: uni0667
Encoding: 1639 1639 21
Width: 460
VWidth: -36
Flags: HW
LayerCount: 2
Fore
SplineSet
408.400390625 606.049804688 m 1
 439.359375 597.950195312 l 1
 287.359375 16.9501953125 l 2
 283.2734375 1.4375 267.1328125 -7.9658203125 249.37890625 -8.662109375 c 0
 233.900390625 -9.26953125 212.328125 -1.681640625 206.640625 16.1220703125 c 2
 20.640625 597.122070312 l 1
 51.1171875 606.877929688 l 1
 236.484375 27.8583984375 l 0
 238.916015625 22.501953125 256.578125 22.3798828125 257.75 28.3876953125 c 0
 408.400390625 606.049804688 l 1
EndSplineSet
EndChar
StartChar: uni0669
Encoding: 1641 1641 23
Width: 371
VWidth: 0
Flags: HW
LayerCount: 2
Fore
SplineSet
325.912109375 319.861328125 m 1
 254.235351562 315.379882812 116.509765625 294.694335938 54.7568359375 383.892578125 c 0
 54.6337890625 384.071289062 54.4072265625 384.4140625 54.2548828125 384.6640625 c 0
 2.712890625 469.106445312 40.16796875 562.959960938 102.534179688 597.661132812 c 0
 158.020507812 635.254882812 268.55078125 632.467773438 318.473632812 558.069335938 c 0
 333.22265625 536.088867188 341.912109375 508.223632812 341.912109375 475 c 2
 341.912109375 0 l 1
 309.912109375 0 l 1
 309.912109375 475 l 2
 309.912109375 503.333984375 302.572265625 524.842773438 291.115234375 541.391601562 c 0
 249.586914062 601.377929688 163.528320312 594.095703125 118.482421875 569.904296875 c 0
 72.146484375 545.01953125 40.181640625 470.151367188 81.326171875 401.733398438 c 0
 129.052734375 334.052734375 249.323242188 347.0859375 325.912109375 351.874023438 c 1
 325.912109375 319.861328125 l 1
EndSplineSet
EndChar
StartChar: uni066A
Encoding: 1642 1642 174
Width: 497
GlyphClass: 2
Flags: HMW
LayerCount: 3
Fore
SplineSet
43 -12 m 1
 413 672 l 1
 454 672 l 1
 84 -12 l 1
 43 -12 l 1
EndSplineSet
Refer: 173 1632 N 1 0 0 1 295 -306 2
Refer: 173 1632 N 1 0 0 1 -48 308 2
EndChar
StartChar: uni066B
Encoding: 1643 1643 175
Width: 112
VWidth: -36
GlyphClass: 2
Flags: HW
LayerCount: 3
Fore
SplineSet
20 67 m 1
 44 67 l 1
 44 -94 l 2
 44 -116 34 -156 -17 -156 c 2
 -67 -156 l 1
 -67 -132 l 1
 -17 -132 l 2
 10 -132 20 -116 20 -94 c 2
 20 67 l 1
EndSplineSet
EndChar
StartChar: uni066E
Encoding: 1646 1646 4
Width: 1000
VWidth: -36
Flags: HW
LayerCount: 2
Fore
SplineSet
765 264 m 1
 797 264 l 1
 797 69 l 2
 797 33.3076171875 763.383789062 1 729 1 c 2
 337 1 l 2
 266.68359375 1 203 53.55078125 203 124 c 2
 203 264 l 1
 235 264 l 1
 235 124 l 2
 235 74.44921875 281.31640625 33 337 33 c 2
 729 33 l 2
 744.616210938 33 765 52.6923828125 765 69 c 2
 765 264 l 1
EndSplineSet
EndChar
StartChar: uni066F
Encoding: 1647 1647 52
Width: 1000
VWidth: -36
Flags: HW
LayerCount: 2
Fore
SplineSet
696 155 m 0
 696 180.90625 689.686523438 201.1640625 679.619140625 217.107421875 c 0
 644.567382812 272.614257812 556.266601562 280.239257812 506.681640625 248.559570312 c 0
 463.883789062 220.610351562 433.182617188 146.219726562 467.693359375 89.275390625 c 0
 511.46498451 16.6335811396 595 26.390625 710 38 c 1
 710 6 l 1
 616.543945312 -5.5341796875 496.859623364 -21.1301508603 440.295898438 72.7421875 c 0
 394.826171875 147.766601562 434.116210938 239.389648438 489.318359375 275.440429688 c 0
 551.604492188 315.233398438 659.670898438 308.62890625 706.67578125 234.193359375 c 0
 720.174804688 212.817382812 728 186.211914062 728 155 c 2
 728 -129 l 2
 728 -163.966796875 700.494140625 -199 657 -199 c 2
 235 -199 l 2
 170.721679688 -199 120 -156.375 120 -89 c 2
 120 153 l 1
 152 153 l 1
 152 -89 l 2
 152 -137.625 185.278320312 -167 235 -167 c 2
 657 -167 l 2
 681.505859375 -167 696 -148.033203125 696 -129 c 2
 696 -129 696 60.3333333333 696 155 c 0
EndSplineSet
EndChar
StartChar: uni0670
Encoding: 1648 1648 164
Width: 0
VWidth: -36
GlyphClass: 4
Flags: HW
AnchorPoint: "arMarkAbove" 0 0 mark 0
AnchorPoint: "arMarkAboveDot" 0 0 mark 0
LayerCount: 2
Fore
SplineSet
-16 183 m 1
 16 183 l 1
 16 32 l 2
 16 18 5 0 -16 0 c 1
 -16 183 l 1
EndSplineSet
EndChar
StartChar: uni06A1
Encoding: 1697 1697 25
Width: 758
VWidth: -36
Flags: HW
LayerCount: 2
Fore
SplineSet
686 155 m 0
 686 180.90625 679.686523438 201.1640625 669.619140625 217.107421875 c 0
 634.567382812 272.614257812 546.266601562 280.239257812 496.681640625 248.559570312 c 0
 453.883789062 220.610351562 423.182617188 146.219726562 457.693359375 89.275390625 c 0
 501.46484375 16.6337890625 585 26.390625 700 38 c 1
 700 6 l 1
 606.543945312 -5.5341796875 486.859375 -21.1298828125 430.295898438 72.7421875 c 0
 384.826171875 147.766601562 424.116210938 239.389648438 479.318359375 275.440429688 c 0
 541.604492188 315.233398438 649.670898438 308.62890625 696.67578125 234.193359375 c 0
 710.174804688 212.817382812 718 186.211914062 718 155 c 2
 718 -129 l 2
 718 -163.966796875 690.494140625 -199 647 -199 c 2
 155 -199 l 2
 90.7216796875 -199 40 -156.375 40 -89 c 2
 40 63 l 1
 72 63 l 1
 72 -89 l 2
 72 -137.625 105.278320312 -167 155 -167 c 2
 647 -167 l 2
 671.505859375 -167 686 -148.033203125 686 -129 c 2
 686 -129 686 60.3330078125 686 155 c 0
EndSplineSet
EndChar
StartChar: uni06BA
Encoding: 1722 1722 24
Width: 1000
VWidth: -36
Flags: HW
LayerCount: 2
Fore
SplineSet
666 152 m 1
 698 152 l 1
 698 -119 l 2
 698 -153.184570312 669.87109375 -187 631 -187 c 2
 492 -187 l 2
 386.01953125 -187 302 -132.765625 302 -39 c 2
 302 151 l 1
 334 151 l 1
 334 -39 l 2
 334 -105.234375 395.98046875 -155 492 -155 c 2
 631 -155 l 2
 650.12890625 -155 666 -136.815429688 666 -119 c 2
 666 152 l 1
EndSplineSet
EndChar
StartChar: uni06D2
Encoding: 1746 1746 26
Width: 1000
VWidth: -36
Flags: HW
LayerCount: 2
Fore
SplineSet
897 -165 m 1
 897 -197 l 1
 271 -197 l 0
 165.975585938 -197 106.250976562 -151.724609375 90.9755859375 -94.0478515625 c 0
 73.8203125 -29.2705078125 114.770507812 42.7890625 189.920898438 62.4716796875 c 0
 294.823242188 90.126953125 273.134765625 124.01953125 302.916015625 166.209960938 c 0
 383.77734375 281.409179688 507.375976562 232.262695312 562.525390625 197.540039062 c 1
 545.474609375 170.459960938 l 1
 492.624023438 203.736328125 394.211914062 240.576171875 329.095703125 147.807617188 c 0
 310.853515625 121.963867188 313.18359375 61.8740234375 198.079101562 31.5283203125 c 0
 138.772460938 15.99609375 109.60546875 -39.396484375 121.909179688 -85.85546875 c 0
 132.388671875 -125.423828125 174.521484375 -165 271 -165 c 0
 897 -165 l 1
EndSplineSet
EndChar
StartChar: uni06D4
Encoding: 1748 1748 176
Width: 262
VWidth: -36
Flags: HW
LayerCount: 3
Fore
SplineSet
92 32 m 1
 194 32 l 1
 170 0 l 1
 68 0 l 1
 92 32 l 1
EndSplineSet
EndChar
StartChar: ar1Dot.above
Encoding: 65588 -1 68
Width: 0
VWidth: 0
GlyphClass: 4
Flags: HW
AnchorPoint: "arMarkAboveDot" 0 90 basemark 0
AnchorPoint: "arDotAbove" 0 0 mark 0
LayerCount: 2
Fore
SplineSet
-25 0 m 0
 -25 14 -14 25 0 25 c 0
 14 25 25 14 25 0 c 0
 25 -14 14 -25 0 -25 c 0
 -14 -25 -25 -14 -25 0 c 0
EndSplineSet
EndChar
StartChar: ar1Noqta.above
Encoding: 65588 -1 68
Width: 0
VWidth: 0
GlyphClass: 4
Flags: HW
AnchorPoint: "arNuqtaAbove" 0 0 mark 0
LayerCount: 2
Fore
SplineSet
-25 0 m 0
 -25 13.8 -13.8 25 0 25 c 0
 13.8 25 25 13.8 25 0 c 0
 25 -13.8 13.8 -25 0 -25 c 0
 -13.8 -25 -25 -13.8 -25 0 c 0
EndSplineSet
EndChar
StartChar: arAin.init
Encoding: 65567 -1 41
Width: 508
VWidth: -36
Flags: HW
AnchorPoint: "arMarkAbove" 253 462 basechar 0
AnchorPoint: "arDotAbove" 253 462 basechar 0
AnchorPoint: "arMarkBelow" 254 -150 basechar 0
AnchorPoint: "arDotBelow" 254 -150 basechar 0
LayerCount: 3
Fore
SplineSet
0 0 m 1
 0 32 l 1
 468 32 l 1
 468 0 l 1
 0 0 l 1
423 285 m 1
 413 255 l 1
 282 294 199 282 168 250 c 0
 135 216 146 140 252 38 c 1
 230 16 l 1
 125 118 90 215 145 272 c 0
 191 320 290 325 423 285 c 1
EndSplineSet
EndChar
StartChar: arAin.isol
Encoding: 65544 -1 8
Width: 426
VWidth: -36
Flags: HW
AnchorPoint: "arMarkAbove" 213 413 basechar 0
AnchorPoint: "arDotAbove" 213 413 basechar 0
AnchorPoint: "arMarkBelow" 236 -117 basechar 0
AnchorPoint: "arDotBelow" 236 -117 basechar 0
LayerCount: 3
Fore
SplineSet
386 -240 m 1
 386 -272 l 1
 98 -272 l 2
 64 -272 40 -243 40 -209 c 2
 40 -32 l 2
 41 -1 58 32 100 32 c 2
 386 32 l 1
 386 0 l 1
 100 0 l 2
 80 0 73 -10 72 -32 c 2
 72 -209 l 2
 72 -229 84 -240 98 -240 c 2
 386 -240 l 1
353 234 m 1
 341 204 l 1
 324 211 309 217 295 221 c 0
 233 238 188 231 168 212 c 0
 141 187 141 124 230 28 c 1
 206 6 l 1
 117 103 97 189 147 235 c 0
 180 266 237 270 303 251 c 0
 319 247 336 241 353 234 c 1
EndSplineSet
EndChar
StartChar: arAlef.isol
Encoding: 65536 -1 0
Width: 112
VWidth: -36
Flags: HW
LayerCount: 2
Fore
SplineSet
40 624 m 1
 72 624 l 1
 72 33 l 0
 72 19 61 1 40 1 c 1
 40 624 l 1
EndSplineSet
EndChar
StartChar: arBeh.init
Encoding: 65563 -1 37
Width: 398
VWidth: -36
Flags: HW
AnchorPoint: "arMarkBelow" 199 -150 basechar 0
AnchorPoint: "arDotBelow" 199 -150 basechar 0
AnchorPoint: "arHamzaAbove" 199 490 basechar 0
AnchorPoint: "arMarkAbove" 199 490 basechar 0
AnchorPoint: "arDotAbove" 199 490 basechar 0
LayerCount: 2
Fore
SplineSet
326 340 m 1
 358 340 l 1
 358 67 l 2
 358 29 328 0 289 0 c 2
 0 0 l 1
 0 32 l 1
 289 32 l 2
 312 32 326 47 326 67 c 2
 326 340 l 1
EndSplineSet
EndChar
StartChar: arBeh.isol
Encoding: 65540 -1 4
Width: 674
VWidth: -36
Flags: HW
AnchorPoint: "arMarkAbove" 337 393 basechar 0
AnchorPoint: "arDotAbove" 337 393 basechar 0
AnchorPoint: "arMarkBelow" 357 -110 basechar 0
AnchorPoint: "arDotBelow" 357 -110 basechar 0
LayerCount: 2
Fore
SplineSet
602 263 m 1
 634 263 l 1
 634 68 l 2
 634 32 600 0 566 0 c 2
 174 0 l 2
 104 0 40 53 40 123 c 2
 40 263 l 1
 72 263 l 1
 72 123 l 2
 72 73 118 32 174 32 c 2
 566 32 l 2
 582 32 602 52 602 68 c 2
 602 263 l 1
EndSplineSet
EndChar
StartChar: arDal.isol
Encoding: 65538 -1 2
Width: 412
VWidth: -36
Flags: HW
AnchorPoint: "arDotBelow" 184 -72 basechar 0
AnchorPoint: "arDotAbove" 198 380.311 basechar 0
LayerCount: 2
Fore
SplineSet
162.844726562 279.689453125 m 1
 177.155273438 308.310546875 l 1
 245.006835938 274.384765625 369 205.084960938 372 68 c 0
 372.62890625 39.26171875 352.805664062 0 304 0 c 2
 40 0 l 1
 40 32 l 1
 304 32 l 2
 330.951171875 32 339.77734375 50.1796875 339.999023438 67.6630859375 c 0
 333.918945312 185.927734375 235.345703125 243.438476562 162.844726562 279.689453125 c 1
EndSplineSet
EndChar
StartChar: arFeh.fina
Encoding: 65574 -1 51
Width: 830
VWidth: -36
Flags: HW
AnchorPoint: "arDotBelow" 379 -299 basechar 0
AnchorPoint: "arDotAbove" 569 449.557 basechar 0
LayerCount: 2
Fore
SplineSet
686 155 m 0
 686 180.90625 679.686523438 201.1640625 669.619140625 217.107421875 c 0
 634.567382812 272.614257812 546.266601562 280.239257812 496.681640625 248.559570312 c 0
 453.883789062 220.610351562 423.182617188 146.219726562 457.693359375 89.275390625 c 0
 493.8671875 29.2431640625 538 29 693 32 c 0
 830 32 l 1
 830 0 l 1
 697.5 0.0380859375 l 0
 538.499023438 -2.6015625 476.676757812 -4.2314453125 430.295898438 72.7421875 c 0
 384.826171875 147.766601562 424.116210938 239.389648438 479.318359375 275.440429688 c 0
 541.604492188 315.233398438 649.670898438 308.62890625 696.67578125 234.193359375 c 0
 710.174804688 212.817382812 718 186.211914062 718 155 c 2
 718 -129 l 2
 718 -163.966796875 690.494140625 -199 647 -199 c 2
 155 -199 l 2
 90.7216796875 -199 40 -156.375 40 -89 c 2
 40 63 l 1
 72 63 l 1
 72 -89 l 2
 72 -137.625 105.278320312 -167 155 -167 c 2
 647 -167 l 2
 671.505859375 -167 686 -148.033203125 686 -129 c 2
 686 -129 686 60.3330078125 686 155 c 0
EndSplineSet
EndChar
StartChar: arFeh.init
Encoding: 65577 -1 54
Width: 463
VWidth: -36
Flags: HW
AnchorPoint: "arMarkBelow" 231 -150 basechar 0
AnchorPoint: "arDotBelow" 231 -150 basechar 0
AnchorPoint: "arMarkAbove" 274 590 basechar 0
AnchorPoint: "arDotAbove" 274 590 basechar 0
LayerCount: 2
Fore
SplineSet
0 32 m 9
 352 32 l 2
 377 32 391 51 391 70 c 2
 391 70 391 200 391 295 c 0
 391 321 385 341 375 357 c 0
 340 413 252 421 202 389 c 0
 159 361 128 286 163 229 c 0
 207 156 290 166 405 178 c 1
 405 146 l 1
 312 134 192 119 135 213 c 0
 90 288 129 379 184 415 c 0
 246 455 355 448 402 374 c 0
 415 353 423 326 423 295 c 2
 423 70 l 2
 423 35 395 0 352 0 c 2
 0 0 l 17
 0 32 l 9
EndSplineSet
EndChar
StartChar: arFeh.isol
Encoding: 65552 -1 25
Width: 758
VWidth: -36
Flags: HW
AnchorPoint: "arMarkBelow" 379 -299 basechar 0
AnchorPoint: "arDotBelow" 379 -299 basechar 0
AnchorPoint: "arMarkAbove" 569 450 basechar 0
AnchorPoint: "arDotAbove" 569 450 basechar 0
LayerCount: 2
Fore
SplineSet
686 155 m 0
 686 181 680 201 670 217 c 0
 635 273 547 281 497 249 c 0
 454 221 423 146 458 89 c 0
 502 16 585 26 700 38 c 1
 700 6 l 1
 607 -6 487 -21 430 73 c 0
 385 148 424 239 479 275 c 0
 541 315 650 308 697 234 c 0
 710 213 718 186 718 155 c 2
 718 -129 l 2
 718 -164 690 -199 647 -199 c 2
 155 -199 l 2
 91 -199 40 -156 40 -89 c 2
 40 63 l 1
 72 63 l 1
 72 -89 l 2
 72 -138 105 -167 155 -167 c 2
 647 -167 l 2
 672 -167 686 -148 686 -129 c 2
 686 -129 686 60 686 155 c 0
EndSplineSet
EndChar
StartChar: arGaf.isol
Encoding: 65612 -1 152
Width: 662
VWidth: 0
Flags: HW
AnchorPoint: "arMarkAbove" 253 620 basechar 0
AnchorPoint: "arDotAbove" 253 620 basechar 0
AnchorPoint: "arMarkBelow" 313 -149 basechar 0
AnchorPoint: "arDotBelow" 313 -149 basechar 0
AnchorPoint: "arShartaAbove" 441 598 basechar 0
LayerCount: 2
Fore
SplineSet
82 32 m 1
 106 0 l 1
 64 0 l 1
 40 32 l 1
 82 32 l 1
EndSplineSet
Refer: 61 -1 N 1 0 0 1 64 0 2
EndChar
StartChar: arHah.init
Encoding: 65569 -1 43
Width: 566
VWidth: 0
Flags: HW
AnchorPoint: "arMarkAbove" 144 386 basechar 0
AnchorPoint: "arDotAbove" 144 386 basechar 0
AnchorPoint: "arMarkBelow" 233 -150 basechar 0
AnchorPoint: "arDotBelow" 233 -150 basechar 0
LayerCount: 3
Fore
SplineSet
0 0 m 1
 0 32 l 1
 483 32 l 0
 486 32 489 34 492 40 c 1
 451 47 417 73 388 99 c 0
 344 138 299 192 249 227 c 0
 197 264 144 276 103 286 c 1
 111 318 l 1
 152 308 209 294 267 253 c 0
 321 214 368 160 410 123 c 0
 449 88 476 70 525 70 c 1
 526 55 l 0
 528 31 514 0 483 0 c 0
 0 0 l 1
EndSplineSet
EndChar
StartChar: arHah.isol
Encoding: 65537 -1 1
Width: 476
VWidth: -36
Flags: HW
AnchorPoint: "arMarkAbove" 158 356 basechar 0
AnchorPoint: "arDotAbove" 158 356 basechar 0
AnchorPoint: "arMarkBelow" 248 -131 basechar 0
AnchorPoint: "arDotBelow" 248 -131 basechar 0
LayerCount: 2
Fore
SplineSet
381 -259 m 1
 381 -291 l 1
 140 -291 l 2
 83 -292 40 -250 40 -195 c 2
 40 -80 l 2
 40 -26 87 32 148 32 c 2
 401 32 l 17
 359 41 328 71 301 100 c 0
 260 145 219 218 113 258 c 1
 125 288 l 1
 241 244 288 163 325 122 c 0
 362 82 387 62 436 62 c 1
 436 46 l 0
 436 33 424 0 393 0 c 2
 148 0 l 2
 107 0 72 -42 72 -80 c 2
 72 -195 l 2
 72 -232 99 -260 140 -259 c 2
 381 -259 l 1
EndSplineSet
EndChar
StartChar: arHah.isol2
Encoding: 65558 -1 32
Width: 476
VWidth: -36
Flags: HW
AnchorPoint: "arMarkAbove" 158 357 basechar 0
AnchorPoint: "arDotAbove" 158 357 basechar 0
AnchorPoint: "arMarkBelow" 248 -130 basechar 0
AnchorPoint: "arDotBelow" 248 -110 basechar 0
LayerCount: 2
Fore
SplineSet
72 -79 m 2
 72 -41 107 1 148 1 c 2
 393 1 l 2
 424 1 436 34 436 47 c 0
 436 63 l 1
 387 63 362 83 325 123 c 0
 288 164 241 245 125 289 c 1
 113 259 l 1
 219 219 260 146 301 101 c 0
 328 72 359 42 401 33 c 9
 148 33 l 2
 87 33 40 -25 40 -79 c 2
 40 -258 l 2
 40 -272 51 -290 72 -290 c 1
 72 -79 l 2
EndSplineSet
EndChar
StartChar: arHamza.isol
Encoding: 65611 -1 91
Width: 0
VWidth: -36
Flags: HW
AnchorPoint: "arNuqtaBelow" 0 -200 basechar 0
AnchorPoint: "arNuqtaAbove" 0 343 basechar 0
LayerCount: 2
Fore
SplineSet
96 143 m 1
 96 111 l 1
 2.7568359375 111 l 1
 36.54296875 39.6748046875 l 2
 39.3125 33.4423828125 46.6669921875 21.3330078125 38.3330078125 9.3173828125 c 0
 32.9580078125 1.56640625 21.2021484375 0 15 0 c 0
 -96 0 l 1
 -96 32 l 1
 4.76953125 32 l 1
 -28.54296875 102.325195312 l 2
 -28.8671875 103.055664062 -39.62890625 122.450195312 -28.4365234375 134.5 c 0
 -23.3232421875 140.005859375 -13.4580078125 143 -3 143 c 2
 96 143 l 1
EndSplineSet
EndChar
StartChar: arHeh.fina2
Encoding: 65622 -1 162
Width: 218
VWidth: -36
Flags: HW
AnchorPoint: "arMarkAbove" 109 150 basechar 0
AnchorPoint: "arHamzaAbove" 109 150 basechar 0
AnchorPoint: "arDotAbove" 109 150 basechar 0
AnchorPoint: "arMarkBelow" 139 -150 basechar 0
AnchorPoint: "arDotBelow" 139 -150 basechar 0
LayerCount: 3
Fore
SplineSet
72 -88 m 1
 40 -88 l 1
 40 -35 l 0
 40 3 70 32 109 32 c 0
 218 32 l 1
 218 0 l 1
 109 0 l 0
 86 0 72 -15 72 -35 c 0
 72 -88 l 1
EndSplineSet
EndChar
StartChar: arHeh.init
Encoding: 65568 -1 42
Width: 672
VWidth: -36
Flags: HW
AnchorPoint: "arNuqtaBelow" 336 -149 basechar 0
AnchorPoint: "arNuqtaAbove" 336 627.998 basechar 0
LayerCount: 2
Fore
SplineSet
248.752929688 396.001953125 m 1
 249.247070312 427.998046875 l 1
 517.451171875 423.85546875 636.19921875 228.36328125 632 68.7890625 c 0
 632 30.34765625 601.497070312 1 564 1 c 2
 0 1 l 1
 0 33 l 1
 564 33 l 2
 584.502929688 33 600 47.65234375 600 69.2109375 c 0
 603.80078125 213.63671875 498.548828125 392.14453125 248.752929688 396.001953125 c 1
188 27 m 1
 156 27 l 1
 156 164 l 0
 156 203.790039062 173.146484375 235.303710938 200.366210938 253.350585938 c 0
 257.1328125 290.986328125 347.422851562 268.14453125 403.411132812 182.725585938 c 0
 421.889648438 154.115234375 430.640625 127.487304688 431.154296875 103.1640625 c 0
 432.526367188 38.1962890625 375.78515625 1.8134765625 322.2421875 1.001953125 c 1
 321.7578125 32.998046875 l 1
 363.548828125 33.6318359375 400.053710938 60.2421875 399.161132812 102.48828125 c 0
 398.803710938 119.401367188 392.5546875 140.551757812 376.588867188 165.274414062 c 0
 327.112304688 240.756835938 255.263671875 251.352539062 218.048828125 226.6796875 c 0
 200.236328125 214.870117188 188 194.543945312 188 164 c 0
 188 27 l 1
EndSplineSet
EndChar
StartChar: arHeh.init2
Encoding: 65621 -1 161
Width: 298
VWidth: -36
Flags: HW
AnchorPoint: "arMarkAbove" 99 490 basechar 0
AnchorPoint: "arDotAbove" 99 490 basechar 0
LayerCount: 2
Fore
SplineSet
215 42 m 1
 241 24 l 1
 209 -22 189 -62 180 -109 c 0
 176 -132 178 -152 192 -164 c 0
 204 -174 229 -185 254 -154 c 1
 279 -174 l 1
 252 -208 201 -215 174 -192 c 0
 149 -171 143 -137 149 -103 c 0
 159 -50 181 -6 215 42 c 1
226 190 m 1
 258 190 l 1
 258 67 l 0
 258 29 228 0 189 0 c 0
 0 0 l 1
 0 32 l 1
 189 32 l 0
 212 32 226 47 226 67 c 0
 226 190 l 1
EndSplineSet
EndChar
StartChar: arHeh.isol
Encoding: 65548 -1 12
Width: 360
VWidth: -36
Flags: HW
AnchorPoint: "arMarkBelow" 204 -109 basechar 0
AnchorPoint: "arDotBelow" 204 -109 basechar 0
AnchorPoint: "arHamzaAbove" 270 450 basechar 0
AnchorPoint: "arMarkAbove" 270 505 basechar 0
AnchorPoint: "arDotAbove" 270 505 basechar 0
LayerCount: 2
Fore
SplineSet
288.063476562 328 m 1
 320.063476562 328 l 1
 320.063476562 69 l 2
 320.063476562 32.0087890625 289.0546875 1 252.063476562 1 c 2
 142.063476562 1 l 2
 113.833007812 1 88.8662109375 11.1591796875 70.7236328125 27.591796875 c 0
 36.705078125 58.404296875 24.3974609375 120.604492188 68.0927734375 161.646484375 c 0
 138.608398438 228.07421875 191.825195312 260.829101562 235.293945312 365.154296875 c 1
 264.833007812 352.845703125 l 1
 218.396484375 241.3984375 158.27734375 202.516601562 90.490234375 138.783203125 c 0
 62.849609375 107.962890625 68.5419921875 72.3662109375 92.6337890625 50.9248046875 c 0
 104.797851562 40.0986328125 121.776367188 33 142.063476562 33 c 2
 252.063476562 33 l 2
 271.072265625 33 288.063476562 49.9912109375 288.063476562 69 c 2
 288.063476562 328 l 1
EndSplineSet
EndChar
StartChar: arHeh.medi2
Encoding: 65555 -1 29
Width: 526
VWidth: -36
Flags: HW
AnchorPoint: "arMarkAbove" 263 232 basechar 0
AnchorPoint: "arDotAbove" 263 232 basechar 0
AnchorPoint: "arMarkBelow" 321 -402 basechar 0
AnchorPoint: "arDotBelow" 321 -402 basechar 0
LayerCount: 2
Fore
SplineSet
350 -286 m 1
 318 -286 l 1
 318 -36 l 2
 318 1 349 32 386 32 c 2
 526 32 l 1
 526 0 l 1
 386 0 l 2
 367 0 350 -17 350 -36 c 2
 350 -286 l 1
319 -296 m 1
 287 -302 l 1
 268 -202 233 -201 193 -137 c 0
 149 -66 172 0 140 0 c 2
 0 0 l 1
 0 32 l 1
 140 32 l 2
 208 32 197 -82 221 -121 c 0
 253 -173 298 -188 319 -296 c 1
EndSplineSet
EndChar
StartChar: arKaf.above
Encoding: 65596 -1 76
Width: 0
VWidth: -36
GlyphClass: 4
Flags: HW
AnchorPoint: "arMarkAboveDot" 0 250 basemark 0
AnchorPoint: "arHamzaAbove" 0 0 mark 0
LayerCount: 3
Fore
SplineSet
96 143 m 1
 96 111 l 1
 3 111 l 1
 37 40 l 2
 40 34 46 21 38 9 c 0
 33 1 21 0 15 0 c 0
 -96 0 l 1
 -96 32 l 1
 5 32 l 1
 -29 102 l 2
 -29 103 -39 122 -28 134 c 0
 -23 140 -13 143 -3 143 c 2
 96 143 l 1
EndSplineSet
EndChar
StartChar: arKaf.init
Encoding: 65570 -1 44
Width: 478
VWidth: -36
Flags: HW
AnchorPoint: "arMarkAbove" 209 619.994 basechar 0
AnchorPoint: "arDotAbove" 69 619.994 basechar 0
AnchorPoint: "arMarkBelow" 129 -149 basechar 0
AnchorPoint: "arDotBelow" 129 -149 basechar 0
AnchorPoint: "arShartaAbove" 257 598 basechar 0
LayerCount: 2
Fore
SplineSet
0 1 m 1
 0 33 l 1
 342 33 l 2
 372.489257812 33 384.516601562 68.4501953125 365.567382812 87.806640625 c 2
 85.5673828125 373.806640625 l 2
 56.986328125 402.999023438 42.251953125 463.6171875 85.8037109375 488.743164062 c 0
 188.88671875 552.258789062 395.73046875 598.86328125 437.567382812 599.994140625 c 1
 438.432617188 568.005859375 l 1
 406.26953125 567.13671875 197.11328125 519.741210938 102.196289062 461.256835938 c 0
 81.5810546875 449.364257812 90.763671875 414.2421875 108.432617188 396.193359375 c 2
 388.432617188 110.193359375 l 2
 424.654296875 73.1962890625 402.02734375 1 342 1 c 2
 0 1 l 1
EndSplineSet
EndChar
StartChar: arKaf.isol
Encoding: 65546 -1 10
Width: 496
VWidth: -36
Flags: HW
LayerCount: 2
Fore
SplineSet
82 33.029296875 m 1
 106.283203125 0.9697265625 l 1
 64.283203125 0.970703125 l 1
 40 33.029296875 l 1
 82 33.029296875 l 1
424.141601562 623 m 1
 456.141601562 623 l 1
 456.141601562 71 l 2
 456.141601562 36.45703125 429.919921875 1 386.141601562 1 c 2
 64.1416015625 1 l 1
 64.1416015625 33 l 1
 386.141601562 33 l 2
 410.36328125 33 424.141601562 51.54296875 424.141601562 71 c 2
 424.141601562 623 l 1
301.141601562 410 m 1
 301.141601562 378 l 1
 207.8984375 378 l 1
 241.684570312 306.674804688 l 2
 244.454101562 300.442382812 251.80859375 288.333007812 243.474609375 276.317382812 c 0
 238.099609375 268.56640625 226.34375 267 220.141601562 267 c 0
 109.141601562 267 l 1
 109.141601562 299 l 1
 209.911132812 299 l 1
 176.598632812 369.325195312 l 2
 176.274414062 370.055664062 165.512695312 389.450195312 176.705078125 401.5 c 0
 181.818359375 407.005859375 191.68359375 410 202.141601562 410 c 2
 301.141601562 410 l 1
EndSplineSet
EndChar
StartChar: arLam.init.1
Encoding: 65556 -1 30
Width: 362
VWidth: -36
Flags: HW
AnchorPoint: "arMarkBelow" 305 -100 basechar 0
AnchorPoint: "arDotBelow" 305 -100 basechar 0
AnchorPoint: "arMarkAbove" 305 723 basechar 0
AnchorPoint: "arDotAbove" 305 723 basechar 0
LayerCount: 2
Back
SplineSet
235 199 m 1
 267 199 l 17
 256 136 220 77 129 26 c 1
 107 26 l 1
 132 40 237 97 235 199 c 1
106 640 m 1
 136 648 l 1
 267 199 l 1
 237 191 l 1
 106 640 l 1
290 624 m 1
 322 624 l 1
 322 71 l 2
 322 31 292 1 255 1 c 2
 40 1 l 1
 40 33 l 1
 255 33 l 2
 274 33 290 47 290 71 c 2
 290 624 l 1
EndSplineSet
Fore
SplineSet
290 624 m 1
 322 624 l 1
 322 70 l 2
 322 30 292 0 255 0 c 2
 40 0 l 1
 40 32 l 1
 255 32 l 2
 274 32 290 46 290 70 c 2
 290 624 l 1
EndSplineSet
EndChar
StartChar: arLam.init
Encoding: 65561 -1 35
Width: 196
VWidth: -36
Flags: HW
AnchorPoint: "arDotAbove" 140 724 basechar 0
AnchorPoint: "arDotBelow" 110 -99 basechar 0
LayerCount: 2
Fore
SplineSet
124 623 m 1
 156 623 l 1
 156 71 l 2
 156 36.892578125 131.059570312 1 87 1 c 2
 0 1 l 1
 0 33 l 1
 87 33 l 2
 110.940429688 33 124 51.107421875 124 71 c 2
 124 623 l 1
EndSplineSet
EndChar
StartChar: arLam.isol
Encoding: 65545 -1 9
Width: 480
VWidth: -36
Flags: HW
AnchorPoint: "arMarkBelow" 227 -258 basechar 0
AnchorPoint: "arDotBelow" 227 -258 basechar 0
AnchorPoint: "arMarkAbove" 424 674 basechar 0
AnchorPoint: "arDotAbove" 424 674 basechar 0
LayerCount: 3
Fore
SplineSet
408 624 m 1
 440 624 l 1
 440 -78 l 2
 440 -113 414 -148 370 -148 c 2
 111 -148 l 2
 70 -148 40 -120 40 -79 c 2
 40 110 l 1
 72 110 l 1
 72 -79 l 2
 72 -102 86 -116 111 -116 c 2
 370 -116 l 2
 394 -116 408 -97 408 -78 c 2
 408 624 l 1
EndSplineSet
EndChar
StartChar: arMeem.isol
Encoding: 65547 -1 11
Width: 557
VWidth: -36
Flags: HW
AnchorPoint: "arMarkBelow" 271 -109 basechar 0
AnchorPoint: "arDotBelow" 271 -109 basechar 0
AnchorPoint: "arMarkAbove" 349 449 basechar 0
AnchorPoint: "arDotAbove" 349 449 basechar 0
LayerCount: 3
Fore
SplineSet
82 32 m 1
 106 -0 l 1
 64 -0 l 1
 40 32 l 1
 82 32 l 1
EndSplineSet
Refer: 90 -1 N 1 0 0 1 82 0 2
EndChar
StartChar: arNoon.fina
Encoding: 65564 -1 38
Width: 574
VWidth: -36
Flags: HW
AnchorPoint: "arNuqtaAbove" 238 302 basechar 0
AnchorPoint: "arNuqtaBelow" 299 -297 basechar 0
LayerCount: 2
Fore
SplineSet
574 33 m 1
 574 1 l 1
 432 1 l 1
 432 33 l 1
 574 33 l 1
EndSplineSet
Refer: 24 -1 N 1 0 0 1 0 0 2
EndChar
StartChar: arNoon.isol
Encoding: 65551 -1 24
Width: 476
VWidth: -36
Flags: HW
AnchorPoint: "arMarkAbove" 238 302 basechar 0
AnchorPoint: "arDotAbove" 238 302 basechar 0
AnchorPoint: "arMarkBelow" 299 -297 basechar 0
AnchorPoint: "arDotBelow" 299 -297 basechar 0
LayerCount: 3
Fore
SplineSet
404 152 m 1
 436 152 l 1
 436 -119 l 2
 436 -153 408 -187 369 -187 c 2
 230 -187 l 2
 124 -187 40 -133 40 -39 c 2
 40 151 l 1
 72 151 l 1
 72 -39 l 2
 72 -105 134 -155 230 -155 c 2
 369 -155 l 2
 388 -155 404 -137 404 -119 c 2
 404 152 l 1
EndSplineSet
EndChar
StartChar: arQaf.fina
Encoding: 65576 -1 53
Width: 760
VWidth: -36
GlyphClass: 2
Flags: HW
AnchorPoint: "arMarkBelow" 374 -299 basechar 0
AnchorPoint: "arDotBelow" 374 -299 basechar 0
AnchorPoint: "arMarkAbove" 499 450 basechar 0
AnchorPoint: "arDotAbove" 499 450 basechar 0
LayerCount: 3
Fore
SplineSet
616 155 m 0
 616 181 610 201 600 217 c 0
 565 273 477 281 427 249 c 0
 384 221 353 146 388 89 c 0
 424 29 468 29 623 32 c 0
 760 32 l 1
 760 0 l 1
 628 0 l 0
 469 -3 406 -4 360 73 c 0
 315 148 354 239 409 275 c 0
 471 315 580 308 627 234 c 0
 640 213 648 186 648 155 c 2
 648 -129 l 2
 648 -164 620 -199 577 -199 c 2
 155 -199 l 2
 91 -199 40 -156 40 -89 c 2
 40 153 l 1
 72 153 l 1
 72 -89 l 2
 72 -138 105 -167 155 -167 c 2
 577 -167 l 2
 602 -167 616 -148 616 -129 c 2
 616 -129 616 60 616 155 c 0
EndSplineSet
EndChar
StartChar: arQaf.isol
Encoding: 65575 -1 52
Width: 688
VWidth: -36
Flags: HW
AnchorPoint: "arMarkBelow" 374 -299 basechar 0
AnchorPoint: "arDotBelow" 374 -299 basechar 0
AnchorPoint: "arMarkAbove" 499 450 basechar 0
AnchorPoint: "arDotAbove" 499 450 basechar 0
LayerCount: 3
Fore
SplineSet
616 155 m 0
 616 181 610 201 600 217 c 0
 565 273 477 281 427 249 c 0
 384 221 353 146 388 89 c 0
 432 16 515 26 630 38 c 1
 630 6 l 1
 537 -6 417 -21 360 73 c 0
 315 148 354 239 409 275 c 0
 471 315 580 308 627 234 c 0
 640 213 648 186 648 155 c 2
 648 -129 l 2
 648 -164 620 -199 577 -199 c 2
 155 -199 l 2
 91 -199 40 -156 40 -89 c 2
 40 153 l 1
 72 153 l 1
 72 -89 l 2
 72 -138 105 -167 155 -167 c 2
 577 -167 l 2
 602 -167 616 -148 616 -129 c 2
 616 -129 616 60 616 155 c 0
EndSplineSet
EndChar
StartChar: arReh.fina
Encoding: 65560 -1 34
Width: 340
VWidth: -36
Flags: HW
LayerCount: 2
Fore
SplineSet
340 32 m 1
 340 0 l 1
 219 0 l 1
 219 32 l 1
 340 32 l 1
EndSplineSet
Refer: 3 -1 N 1 0 0 1 0 -1 2
Colour: ff00ff
EndChar
StartChar: arReh.isol
Encoding: 65539 -1 3
Width: 227
VWidth: -36
Flags: HW
AnchorPoint: "arMarkBelow" 93 -280 basechar 0
AnchorPoint: "arDotBelow" 93 -280 basechar 0
AnchorPoint: "arMarkAbove" 171 291 basechar 0
AnchorPoint: "arDotAbove" 171 291 basechar 0
LayerCount: 3
Fore
SplineSet
155 151 m 1
 187 151 l 1
 187 -37 l 2
 187 -119 167 -200 72 -200 c 2
 0 -200 l 1
 0 -168 l 1
 72 -168 l 2
 139 -168 155 -119 155 -37 c 2
 155 151 l 1
EndSplineSet
EndChar
StartChar: arSad.head
Encoding: 65607 -1 87
Width: 0
VWidth: -36
Flags: HW
AnchorPoint: "arDotBelow" 0 -200 basechar 0
AnchorPoint: "arDotAbove" 0 506.773 basechar 0
LayerCount: 2
Fore
SplineSet
-221 32 m 1
 -221 0 l 1
 151 0 l 2
 190 0 221 31 220 69 c 2
 218 135 l 0
 216 220 189 274 131 298 c 0
 -2 347 -106 181 -207 42 c 1
 -182 24 l 17
 -78 166 18 305 120 268 c 0
 163 250 184 214 186 135 c 0
 188 67 l 2
 189 48 174 32 151 32 c 2
 -221 32 l 1
EndSplineSet
EndChar
StartChar: arSad.init
Encoding: 65571 -1 45
Width: 620
VWidth: -36
Flags: HW
AnchorPoint: "arMarkAbove" 277 427 basechar 0
AnchorPoint: "arDotAbove" 277 427 basechar 0
AnchorPoint: "arMarkBelow" 365 -149 basechar 0
AnchorPoint: "arDotBelow" 365 -149 basechar 0
LayerCount: 2
Back
SplineSet
0 32 m 1
 511 32 l 2
 533.783203125 32 548.680664062 47.978515625 548.009765625 67.4482421875 c 2
 546.006835938 134.522460938 l 0
 544.08203125 213.456054688 521.893554688 249.84375 479.122070312 268.115234375 c 0
 377.139648438 305.228515625 281.791992188 165.721679688 178 24 c 9
 152.029296875 42.3681640625 l 1
 252.653320312 181.693359375 358.301757812 347.029296875 490.880859375 297.883789062 c 0
 548.912109375 273.510742188 575.924804688 220.283203125 577.994140625 135.43359375 c 0
 579.9921875 68.5146484375 l 2
 581.318359375 30.052734375 550.217773438 0 511 0 c 2
 0 0 l 1
 0 32 l 1
123 241 m 1
 155 241 l 1
 155 22 l 1
 123 22 l 1
 123 241 l 1
EndSplineSet
Fore
SplineSet
157 0 m 1
 157 32 l 1
 0 32 l 1
 0 0 l 1
 157 0 l 1
123 241 m 1
 123 22 l 1
 155 22 l 1
 155 241 l 1
 123 241 l 1
EndSplineSet
Refer: 87 -1 N 1 0 0 1 360 0 2
EndChar
StartChar: arSad.isol
Encoding: 65542 -1 6
Width: 906
VWidth: -36
Flags: HW
AnchorPoint: "arMarkBelow" 229 -311 basechar 0
AnchorPoint: "arDotBelow" 229 -311 basechar 0
AnchorPoint: "arMarkAbove" 563 427 basechar 0
AnchorPoint: "arDotAbove" 563 427 basechar 0
LayerCount: 2
Back
SplineSet
409 241 m 1
 409 -133 l 2
 409 -153.362304688 394.404296875 -169 372 -169 c 2
 105 -169 l 2
 89.142578125 -169 72 -151.1015625 72 -129 c 2
 72 149 l 1
 40 149 l 1
 40 -129 l 2
 40 -164.8984375 66.857421875 -201 105 -201 c 2
 372 -201 l 2
 411.595703125 -201 441 -170.637695312 441 -133 c 2
 441 241 l 1
 409 241 l 1
425 32 m 1
 425 0 l 1
 797 0 l 2
 836.217773438 0 867.318359375 30.052734375 865.9921875 68.5146484375 c 2
 863.994140625 135.43359375 l 0
 861.924804688 220.283203125 834.912109375 273.510742188 776.880859375 297.883789062 c 0
 644.301757812 347.029296875 538.653320312 181.693359375 438.029296875 42.3681640625 c 1
 464 24 l 17
 567.791992188 165.721679688 663.139648438 305.228515625 765.122070312 268.115234375 c 0
 807.893554688 249.84375 830.08203125 213.456054688 832.006835938 134.522460938 c 0
 834.009765625 67.4482421875 l 2
 834.680664062 47.978515625 819.783203125 32 797 32 c 2
 425 32 l 1
EndSplineSet
Fore
SplineSet
409 241 m 1
 409 -133 l 2
 409 -153 394 -169 372 -169 c 2
 105 -169 l 2
 89 -169 72 -151 72 -129 c 2
 72 149 l 1
 40 149 l 1
 40 -129 l 2
 40 -165 67 -201 105 -201 c 2
 372 -201 l 2
 412 -201 441 -171 441 -133 c 2
 441 241 l 1
 409 241 l 1
EndSplineSet
Refer: 87 -1 N 1 0 0 1 646 0 2
EndChar
StartChar: arSad.mark
Encoding: 65608 -1 88
Width: 0
VWidth: 34
Flags: HW
AnchorPoint: "arHamzaAbove" 0 0 mark 0
LayerCount: 2
Fore
SplineSet
-83.005859375 -0.0693359375 m 1
 -83.005859375 15.9306640625 l 1
 -131.005859375 15.9306640625 l 1
 -131.005859375 -0.0693359375 l 1
 -83.005859375 -0.0693359375 l 1
EndSplineSet
Refer: 87 -1 N 0.5 0 0 0.5 20.9943 -0.0692968 2
EndChar
StartChar: arSeen.init
Encoding: 65562 -1 36
Width: 635
VWidth: -36
GlyphClass: 2
Flags: HW
AnchorPoint: "arMarkBelow" 405 -150 basechar 0
AnchorPoint: "arDotBelow" 405 -150 basechar 0
AnchorPoint: "arMarkAbove" 405 512 basechar 0
AnchorPoint: "arDotAbove" 405 512 basechar 0
LayerCount: 3
Fore
SplineSet
563 340 m 1
 595 340 l 1
 595 68 l 2
 595 30 566 0 526 0 c 2
 410 0 l 1
 410 32 l 1
 526 32 l 2
 548 32 563 48 563 68 c 2
 563 340 l 1
389 340 m 1
 421 340 l 1
 421 67 l 2
 421 29 391 0 352 0 c 2
 240 0 l 1
 240 32 l 1
 352 32 l 2
 375 32 389 47 389 67 c 2
 389 340 l 1
216 340 m 1
 248 340 l 1
 248 68 l 2
 248 30 219 0 179 0 c 2
 0 0 l 1
 0 32 l 1
 179 32 l 2
 201 32 216 48 216 68 c 2
 216 340 l 1
EndSplineSet
EndChar
StartChar: arSeen.isol
Encoding: 65541 -1 5
Width: 828
VWidth: -36
GlyphClass: 2
Flags: HW
AnchorPoint: "arMarkBelow" 229 -311 basechar 0
AnchorPoint: "arDotBelow" 229 -311 basechar 0
AnchorPoint: "arMarkAbove" 598 512 basechar 0
AnchorPoint: "arDotAbove" 598 512 basechar 0
LayerCount: 3
Fore
SplineSet
756 340 m 1
 788 340 l 1
 788 68 l 2
 788 30 757 0 718 0 c 2
 603 0 l 1
 603 32 l 1
 718 32 l 2
 741 32 756 48 756 68 c 2
 756 340 l 1
582 340 m 1
 614 340 l 1
 614 68 l 2
 614 30 585 0 545 0 c 2
 433 0 l 1
 433 32 l 1
 545 32 l 2
 567 32 582 48 582 68 c 2
 582 340 l 1
409 342 m 1
 441 342 l 1
 441 -133 l 2
 441 -171 412 -201 372 -201 c 2
 105 -201 l 2
 67 -201 40 -165 40 -129 c 2
 40 149 l 1
 72 149 l 1
 72 -129 l 2
 72 -151 89 -169 105 -169 c 2
 372 -169 l 2
 394 -169 409 -153 409 -133 c 2
 409 342 l 1
EndSplineSet
EndChar
StartChar: arSharta.kaf
Encoding: 65614 -1 155
Width: 0
VWidth: 0
Flags: HW
AnchorPoint: "arShartaAbove" 0 0 mark 0
LayerCount: 2
Fore
SplineSet
-159.626953125 524.673828125 m 1
 -176.412109375 551.91796875 l 1
 -72.912109375 615.690429688 133.609375 662.15625 175.548828125 663.290039062 c 1
 176.412109375 631.301757812 l 1
 144.3515625 630.435546875 -65.126953125 582.901367188 -159.626953125 524.673828125 c 1
EndSplineSet
EndChar
StartChar: arTah.isol
Encoding: 65543 -1 7
Width: 613
VWidth: -36
Flags: HW
AnchorPoint: "arNuqtaBelow" 359 -110 basechar 0
AnchorPoint: "arNuqtaAbove" 396 485 basechar 0
LayerCount: 2
Back
SplineSet
40 32 m 1
 40 0 l 1
 504 0 l 2
 543.217773438 0 574.318359375 30.052734375 572.9921875 68.5146484375 c 2
 570.994140625 135.43359375 l 0
 568.924804688 220.283203125 541.912109375 273.510742188 483.880859375 297.883789062 c 0
 351.301757812 347.029296875 245.653320312 181.693359375 145.029296875 42.3681640625 c 1
 171 24 l 17
 274.791992188 165.721679688 370.139648438 305.228515625 472.122070312 268.115234375 c 0
 514.893554688 249.84375 537.08203125 213.456054688 539.006835938 134.522460938 c 0
 541.009765625 67.4482421875 l 2
 541.680664062 47.978515625 526.783203125 32 504 32 c 2
 40 32 l 1
144 625 m 1
 144 22 l 1
 176 22 l 1
 176 625 l 1
 144 625 l 1
EndSplineSet
Fore
SplineSet
150 0 m 1
 150 32 l 1
 40 32 l 1
 40 0 l 1
 150 0 l 1
144 624 m 1
 144 22 l 1
 176 22 l 1
 176 624 l 1
 144 624 l 1
EndSplineSet
Refer: 87 -1 N 1 0 0 1 353 0 2
EndChar
StartChar: arWaw.fina
Encoding: 65559 -1 33
Width: 500
VWidth: -36
Flags: HW
LayerCount: 2
Fore
SplineSet
500 32 m 5
 500 21.3333333333 500 10.6666666667 500 0 c 5
 353 0 l 5
 353 32 l 5
 500 32 l 5
EndSplineSet
Refer: 13 -1 N 1 0 0 1 0 0 2
Colour: ff00ff
EndChar
StartChar: arWaw.isol
Encoding: 65549 -1 13
Width: 387
VWidth: -36
GlyphClass: 2
Flags: HW
AnchorPoint: "arMarkBelow" 169 -309 basechar 0
AnchorPoint: "arDotBelow" 169 -309 basechar 0
AnchorPoint: "arHamzaAbove" 233 434 basechar 0
AnchorPoint: "arMarkAbove" 233 434 basechar 0
AnchorPoint: "arDotAbove" 233 434 basechar 0
LayerCount: 3
Fore
SplineSet
315 197 m 2
 315 250 283 272 240 272 c 0
 176 272 92 216 83 118 c 0
 81 76 119 32 171 32 c 2
 331 32 l 1
 331 0 l 1
 171 0 l 2
 101 0 47 58 51 120 c 0
 61 236 159 303 239 304 c 0
 296 304 347 269 347 197 c 2
 347 -37 l 2
 347 -118 286 -199 193 -199 c 2
 0 -199 l 1
 0 -167 l 1
 193 -167 l 2
 266 -167 315 -104 315 -37 c 2
 315 197 l 2
EndSplineSet
EndChar
StartChar: arYeh.fina.alt1
Encoding: 65565 -1 39
Width: 574
VWidth: -36
Flags: HW
AnchorPoint: "arMarkAbove" 247 199 basechar 0
AnchorPoint: "arHamzaAbove" 247 199 basechar 0
AnchorPoint: "arDotAbove" 247 199 basechar 0
AnchorPoint: "arMarkBelow" 287 -288 basechar 0
AnchorPoint: "arDotBelow" 287 -288 basechar 0
LayerCount: 2
Fore
SplineSet
574 32 m 1
 574 0 l 1
 321 0 l 1
 321 32 l 1
 574 32 l 1
402 21 m 1
 434 21 l 1
 434 -122 l 2
 434 -149 414 -188 371 -188 c 2
 234 -188 l 2
 148 -188 40 -130 40 -33 c 2
 40 149 l 1
 72 149 l 1
 72 -33 l 2
 72 -102 156 -156 234 -156 c 2
 371 -156 l 2
 390 -156 402 -137 402 -122 c 2
 402 21 l 1
EndSplineSet
EndChar
StartChar: arYeh.fina.alt2
Encoding: 65566 -1 40
Width: 768
VWidth: -36
Flags: HW
AnchorPoint: "arMarkAbove" 214 293 basechar 0
AnchorPoint: "arHamzaAbove" 214 293 basechar 0
AnchorPoint: "arDotAbove" 214 293 basechar 0
AnchorPoint: "arMarkBelow" 304 -273 basechar 0
AnchorPoint: "arDotBelow" 304 -273 basechar 0
LayerCount: 2
Fore
SplineSet
768 32 m 1
 768 0 l 1
 657 0 l 2
 623 0 595 26 594 61 c 2
 590 143 l 2
 588 195 542 221 483 188 c 0
 442 166 398 135 371 108 c 0
 361 98 361 75 373 61 c 2
 488 -70 l 2
 524 -111 485 -163 437 -163 c 2
 171 -163 l 2
 92 -164 40 -98 40 -23 c 2
 40 180 l 1
 72 180 l 1
 72 -23 l 2
 72 -84 112 -132 171 -131 c 2
 437 -131 l 2
 464 -131 478 -108 464 -92 c 2
 351 38 l 2
 328 65 322 108 350 132 c 0
 385 166 427 194 467 216 c 0
 541 258 618 223 622 145 c 2
 626 62 l 2
 627 45 638 32 657 32 c 2
 768 32 l 1
EndSplineSet
EndChar
StartChar: arYeh.fina2
Encoding: 65573 -1 47
Width: 661
VWidth: -36
Flags: HW
AnchorPoint: "arMarkBelow" 330 -376 basechar 0
AnchorPoint: "arDotBelow" 330 -376 basechar 0
AnchorPoint: "arMarkAbove" 380 319 basechar 0
AnchorPoint: "arHamzaAbove" 380 319 basechar 0
AnchorPoint: "arDotAbove" 380 319 basechar 0
LayerCount: 2
Fore
SplineSet
662 -244 m 1
 662 -276 l 1
 224 -276 l 2
 119 -276 59 -231 44 -173 c 0
 27 -108 68 -36 143 -16 c 0
 248 12 230 44 255 86 c 0
 279 127 320 162 379 160 c 0
 422 159 463 134 486 91 c 0
 509 46 538 32 588 32 c 2
 661 32 l 1
 661 0 l 1
 588 0 l 2
 530 0 487 22 458 77 c 0
 441 109 411 127 379 128 c 0
 333 130 303 103 283 70 c 0
 266 40 266 -16 151 -46 c 0
 92 -62 63 -118 75 -165 c 0
 86 -205 128 -244 224 -244 c 2
 662 -244 l 1
EndSplineSet
EndChar
StartChar: arYeh.isol
Encoding: 65550 -1 14
Width: 544
VWidth: -36
Flags: HW
AnchorPoint: "arMarkAbove" 207 192 basechar 0
AnchorPoint: "arHamzaAbove" 207 192 basechar 0
AnchorPoint: "arDotAbove" 207 192 basechar 0
AnchorPoint: "arMarkBelow" 279 -334 basechar 0
AnchorPoint: "arDotBelow" 279 -334 basechar 0
LayerCount: 2
Fore
SplineSet
504 62 m 1
 504 30 l 1
 396 30 l 2
 365.9140625 30 345.0546875 10.044921875 371.33203125 -21.8056640625 c 2
 482.37890625 -155.862304688 l 2
 513.340820312 -194.107421875 481.46484375 -244 427 -244 c 2
 197 -244 l 2
 128.74609375 -244 40 -206.1796875 40 -103 c 2
 40 59 l 1
 72 59 l 1
 72 -103 l 2
 72 -181.8203125 137.25390625 -212 197 -212 c 2
 427 -212 l 2
 459.3515625 -212 469.794921875 -191.178710938 457.62109375 -176.137695312 c 2
 346.678710938 -42.20703125 l 2
 303.443359375 10.2001953125 340.912109375 62 396 62 c 2
 504 62 l 1
EndSplineSet
EndChar
StartChar: arYeh.isol2
Encoding: 65553 -1 26
Width: 889
VWidth: -36
Flags: HW
LayerCount: 2
Fore
SplineSet
849.903320312 -165 m 1
 849.903320312 -197 l 1
 223.903320312 -197 l 0
 118.87890625 -197 59.154296875 -151.724609375 43.87890625 -94.0478515625 c 0
 26.7236328125 -29.2705078125 67.673828125 42.7890625 142.82421875 62.4716796875 c 0
 247.7265625 90.126953125 226.038085938 124.01953125 255.819335938 166.209960938 c 0
 336.680664062 281.409179688 460.279296875 232.262695312 515.428710938 197.540039062 c 1
 498.377929688 170.459960938 l 1
 445.52734375 203.736328125 347.115234375 240.576171875 281.999023438 147.807617188 c 0
 263.756835938 121.963867188 266.086914062 61.8740234375 150.982421875 31.5283203125 c 0
 91.67578125 15.99609375 62.5087890625 -39.396484375 74.8125 -85.85546875 c 0
 85.2919921875 -125.423828125 127.424804688 -165 223.903320312 -165 c 0
 849.903320312 -165 l 1
EndSplineSet
EndChar
StartChar: parenleft.ar
Encoding: 40 -1 49
Width: 269
VWidth: -36
Flags: HW
LayerCount: 2
Fore
SplineSet
220.451171875 741.278320312 m 1
 247.833984375 724.721679688 l 1
 42.5791015625 385.260742188 35.583984375 45.630859375 249.915039062 -316.856445312 c 1
 222.370117188 -333.143554688 l 1
 2.701171875 38.369140625 9.7060546875 392.739257812 220.451171875 741.278320312 c 1
EndSplineSet
EndChar
StartChar: u0644_u0627.isol.alt1
Encoding: 65539 -1 31
Width: 1000
VWidth: -36
Flags: HW
LayerCount: 2
Fore
SplineSet
604 623 m 1
 636 623 l 1
 636 73 l 0
 636 33.7568359375 608.112304688 1 570 1 c 0
 420 1 l 1
 420 33 l 1
 570 33 l 0
 587.887695312 33 604 48.2431640625 604 73 c 0
 604 623 l 1
422 622 m 1
 454 622 l 1
 454 121 l 1
 422 121 l 1
 422 622 l 1
EndSplineSet
EndChar
StartChar: u0644_u0627.isol.alt2
Encoding: 65540 -1 32
Width: 1000
VWidth: -36
Flags: HW
LayerCount: 2
Fore
SplineSet
649 624 m 1
 681 624 l 1
 681 71 l 0
 681 31.19140625 652.30859375 1 615 1 c 0
 335 1 l 1
 335 33 l 1
 615 33 l 0
 633.69140625 33 649 46.80859375 649 71 c 0
 649 624 l 1
467 528 m 1
 499 528 l 1
 499 23 l 1
 467 23 l 1
 467 528 l 1
EndSplineSet
EndChar
StartChar: u0644_u0627.isol
Encoding: 65538 -1 30
Width: 1000
VWidth: -36
Flags: HW
LayerCount: 2
Fore
SplineSet
552 199 m 1
 584 199 l 17
 573 136 537 77 446 26 c 1
 424 26 l 1
 449 40 554 97 552 199 c 1
423 640 m 1
 453 648 l 1
 584 199 l 1
 554 191 l 1
 423 640 l 1
607 624 m 1
 639 624 l 1
 639 71 l 2
 639 31 609 1 572 1 c 2
 357 1 l 1
 357 33 l 1
 572 33 l 2
 591 33 607 47 607 71 c 2
 607 624 l 1
EndSplineSet
EndChar
StartChar: uni062D.init
Encoding: 65554 -1 43
Width: 1000
VWidth: 0
Flags: HW
LayerCount: 2
Fore
SplineSet
245 0 m 1
 245 32 l 1
 728 32 l 0
 730.708007812 32 733.970703125 33.7421875 736.73828125 39.55078125 c 1
 696.040039062 46.4892578125 662.537109375 73.4091796875 633.421875 98.99609375 c 0
 589.09765625 138.166015625 543.484375 191.556640625 493.745117188 226.948242188 c 0
 441.497070312 263.997070312 389.258789062 276.443359375 348.208984375 286.456054688 c 1
 355.791015625 317.543945312 l 1
 396.741210938 307.556640625 454.502929688 294.002929688 512.254882812 253.051757812 c 0
 566.528320312 214.434570312 612.879882812 159.853515625 654.594726562 122.989257812 c 0
 694.036170424 88.3295914067 721.376657253 70 769.897460938 70 c 1
 770.958984375 55.1396484375 l 0
 772.65625 31.3818359375 758.870117188 0 728 0 c 0
 245 0 l 1
EndSplineSet
EndChar
StartChar: uni0631.fina
Encoding: 65542 -1 34
Width: 1000
VWidth: -36
Flags: HW
LayerCount: 2
Fore
SplineSet
698 33 m 1
 698 1 l 1
 551 1 l 1
 551 33 l 1
 698 33 l 1
EndSplineSet
Refer: 3 1585 N 1 0 0 1 0 0 2
EndChar
StartChar: uni0633.init
Encoding: 65544 -1 36
Width: 1000
VWidth: -36
Flags: HW
LayerCount: 2
Fore
SplineSet
764 341 m 1
 796 341 l 1
 796 69 l 0
 796 31.3623046875 766.595703125 1 727 1 c 0
 611 1 l 1
 611 33 l 1
 727 33 l 0
 749.404296875 33 764 48.6376953125 764 69 c 0
 764 341 l 1
590 341 m 1
 622 341 l 1
 622 68 l 0
 622 30.0703125 592.180664062 1 553 1 c 0
 441 1 l 1
 441 33 l 1
 553 33 l 0
 575.819335938 33 590 47.9296875 590 68 c 0
 590 341 l 1
417 341 m 1
 449 341 l 1
 449 69 l 0
 449 31.3623046875 419.595703125 1 380 1 c 0
 201 1 l 1
 201 33 l 1
 380 33 l 0
 402.404296875 33 417 48.6376953125 417 69 c 0
 417 341 l 1
EndSplineSet
EndChar
StartChar: uni0635.init
Encoding: 65556 -1 45
Width: 1000
VWidth: -36
Flags: HW
LayerCount: 2
Fore
SplineSet
203 32 m 1
 714 32 l 2
 736.783203125 32 751.680664062 47.978515625 751.009765625 67.4482421875 c 2
 749.006835938 134.522460938 l 0
 747.08203125 213.456054688 724.893554688 249.84375 682.122070312 268.115234375 c 0
 580.139648438 305.228515625 484.791992188 165.721679688 381 24 c 9
 355.029296875 42.3681640625 l 1
 455.653320312 181.693359375 561.301757812 347.029296875 693.880859375 297.883789062 c 0
 751.912109375 273.510742188 778.924804688 220.283203125 780.994140625 135.43359375 c 0
 782.9921875 68.5146484375 l 2
 784.318359375 30.052734375 753.217773438 0 714 0 c 2
 203 0 l 1
 203 32 l 1
326 241 m 1
 358 241 l 1
 358 22 l 1
 326 22 l 1
 326 241 l 1
EndSplineSet
EndChar
StartChar: uni0639.init
Encoding: 65549 -1 41
Width: 1000
VWidth: -36
Flags: HW
LayerCount: 2
Fore
SplineSet
266 1 m 1
 266 33 l 1
 734 33 l 1
 734 1 l 1
 266 1 l 1
688.602539062 286.323242188 m 1
 679.397460938 255.676757812 l 1
 548.165039062 295.092773438 465.094726562 283.15625 434.004882812 251.110351562 c 0
 401.119140625 217.213867188 412.450195312 141.971679688 518.138671875 39.486328125 c 1
 495.861328125 16.513671875 l 1
 390.551757812 118.631835938 355.547851562 216.197265625 411.037109375 273.392578125 c 0
 457.434570312 321.215820312 555.413085938 326.328125 688.602539062 286.323242188 c 1
EndSplineSet
EndChar
StartChar: uni0643.init
Encoding: 65555 -1 44
Width: 1000
VWidth: -36
Flags: HW
LayerCount: 2
Fore
SplineSet
221 1 m 1
 221 33 l 1
 683 33 l 2
 713.488879183 33 725.516520217 68.4506497942 706.567382812 87.806640625 c 2
 426.567382812 373.806640625 l 2
 397.986048637 402.998780294 383.251767288 463.617148037 426.803710938 488.743164062 c 0
 529.88671875 552.258789062 736.73046875 598.86328125 778.567382812 599.994140625 c 1
 779.432617188 568.005859375 l 1
 747.26953125 567.13671875 538.11328125 519.741210938 443.196289062 461.256835938 c 0
 422.581269444 449.363938486 431.763523421 414.242156179 449.432617188 396.193359375 c 2
 729.432617188 110.193359375 l 2
 765.653950192 73.1962811828 743.027595881 1 683 1 c 2
 221 1 l 1
EndSplineSet
EndChar
StartChar: uni0643_uni0627.isol
Encoding: 65557 -1 46
Width: 1000
VWidth: -36
Flags: HW
LayerCount: 2
Fore
SplineSet
708.75 600.114257812 m 1
 719.25 569.885742188 l 1
 628.866210938 538.489257812 460.7421875 473.311523438 376.555664062 395.68359375 c 1
 681.41015625 80.216796875 l 2
 714.32548881 47.3051350338 685.242975323 0 640 0 c 2
 335 0 l 2
 295.274414062 0 270 35.1669921875 270 70 c 2
 270 635 l 1
 302 635 l 1
 302 70 l 2
 302 48.8330078125 316.725585938 32 335 32 c 2
 640 32 l 2
 663.545993561 32 668.886584477 47.4864623981 658.58984375 57.783203125 c 2
 342.494140625 384.881835938 l 0
 336.803710938 390.770507812 336.466796875 400.875976562 342.489257812 407.11328125 c 0
 430.725585938 498.500976562 613.250976562 566.940429688 708.75 600.114257812 c 1
EndSplineSet
EndChar
StartChar: uni0644.int
Encoding: 65543 -1 35
Width: 196
VWidth: -36
Flags: HW
LayerCount: 2
Fore
SplineSet
124 623 m 1
 156 623 l 1
 156 71 l 0
 156 36.892578125 131.059570312 1 87 1 c 0
 0 1 l 1
 0 33 l 1
 87 33 l 0
 110.940429688 33 124 51.107421875 124 71 c 0
 124 623 l 1
EndSplineSet
EndChar
StartChar: uni0647.init
Encoding: 65552 -1 42
Width: 1000
VWidth: -36
Flags: HW
LayerCount: 2
Fore
SplineSet
440.752929688 396.001953125 m 1
 441.247070312 427.998046875 l 1
 709.451171875 423.85546875 828.19921875 228.36328125 824 68.7890625 c 0
 824 30.34765625 793.497070312 1 756 1 c 2
 192 1 l 1
 192 33 l 1
 756 33 l 2
 776.502929688 33 792 47.65234375 792 69.2109375 c 0
 795.80078125 213.63671875 690.548828125 392.14453125 440.752929688 396.001953125 c 1
380 27 m 1
 348 27 l 1
 348 164 l 0
 348 203.790039062 365.146484375 235.303710938 392.366210938 253.350585938 c 0
 449.1328125 290.986328125 539.422851562 268.14453125 595.411132812 182.725585938 c 0
 613.889648438 154.115234375 622.640625 127.487304688 623.154296875 103.1640625 c 0
 624.526367188 38.1962890625 567.78515625 1.8134765625 514.2421875 1.001953125 c 1
 513.7578125 32.998046875 l 1
 555.548828125 33.6318359375 592.053710938 60.2421875 591.161132812 102.48828125 c 0
 590.803710938 119.401367188 584.5546875 140.551757812 568.588867188 165.274414062 c 0
 519.112304688 240.756835938 447.263671875 251.352539062 410.048828125 226.6796875 c 0
 392.236328125 214.870117188 380 194.543945312 380 164 c 0
 380 27 l 1
EndSplineSet
EndChar
StartChar: uni0647.medi
Encoding: 65537 -1 29
Width: 1000
VWidth: -36
Flags: HW
LayerCount: 2
Fore
SplineSet
556 -285 m 1
 524 -285 l 1
 524 -35 l 2
 524 1.9912109375 555.008789062 33 592 33 c 2
 732 33 l 1
 732 1 l 1
 592 1 l 2
 572.991210938 1 556 -15.9912109375 556 -35 c 2
 556 -285 l 1
524.711914062 -294.978515625 m 1
 493.288085938 -301.021484375 l 1
 474.09375 -201.211914062 439.159179688 -200.484375 399.390625 -136.413085938 c 0
 355.208984375 -64.943359375 378.037109375 1 345.659179688 1 c 2
 206 1 l 1
 206 33 l 1
 346.3203125 33 l 2
 414.103515625 33 402.571289062 -80.701171875 426.609375 -119.586914062 c 0
 458.840820312 -171.515625 503.90625 -186.788085938 524.711914062 -294.978515625 c 1
EndSplineSet
EndChar
StartChar: uni0648.fina
Encoding: 65541 -1 33
Width: 500
VWidth: -36
Flags: HW
LayerCount: 2
Fore
SplineSet
500 32 m 1
 500 0 l 1
 353 0 l 1
 353 32 l 1
 500 32 l 1
EndSplineSet
Refer: 13 1608 N 1 0 0 1 0 0 2
EndChar
StartChar: uni0649.fina.alt1
Encoding: 65547 -1 39
Width: 1000
VWidth: -36
Flags: HW
LayerCount: 2
Fore
SplineSet
759 33 m 1
 759 1 l 1
 506 1 l 1
 506 33 l 1
 759 33 l 1
587 22 m 1
 619 22 l 1
 619 -121 l 2
 619 -147.994140625 598.705078125 -187 556 -187 c 2
 419 -187 l 2
 332.506835938 -187 225 -128.5078125 225 -32 c 2
 225 150 l 1
 257 150 l 1
 257 -32 l 2
 257 -101.4921875 341.493164062 -155 419 -155 c 2
 556 -155 l 2
 575.294921875 -155 587 -136.005859375 587 -121 c 2
 587 22 l 1
EndSplineSet
EndChar
StartChar: uni0649.fina.alt2
Encoding: 65548 -1 40
Width: 1000
VWidth: -36
Flags: HW
LayerCount: 2
Fore
SplineSet
856 33 m 1
 856 1 l 1
 745 1 l 2
 710.616210938 1 682.67578125 26.712890625 681.9921875 61.77734375 c 2
 678.018554688 144.239257812 l 2
 675.559267555 195.871675867 629.634089513 221.907570183 570.7578125 189.006835938 c 0
 530.196036958 166.696952238 486 136 459.306640625 108.76171875 c 0
 449.41168443 98.6647655711 448.33984375 75.98046875 460.734375 61.8642578125 c 2
 575.663085938 -69.0322265625 l 2
 611.244140625 -109.557617188 572.982691371 -162 525 -162 c 2
 259.116210938 -162 l 2
 179.924804688 -163.147460938 128 -96.9453125 128 -22 c 2
 128 181 l 1
 160 181 l 1
 160 -22 l 2
 160 -83.0546875 200.075195312 -130.852539062 258.883789062 -130 c 2
 525 -130 l 2
 551.555548502 -130 565.987963776 -106.63113164 551.970703125 -90.548828125 c 2
 438.536132812 38.8046875 l 2
 415.045898438 65.5908203125 410.71875 108.556640625 438.26953125 132.881835938 c 0
 473.759765625 167.188476562 514.796875 194.748046875 555.2421875 216.993164062 c 0
 629.535566121 258.510272914 706.251427402 224.151655437 709.981445312 145.760742188 c 2
 713.981445312 62.7705078125 l 2
 714.805679501 45.736335552 725.785065589 33 745 33 c 2
 856 33 l 1
EndSplineSet
EndChar
StartChar: uni0664.alt
Encoding: 65536 -1 28
Width: 460
VWidth: -36
Flags: HW
LayerCount: 2
Fore
SplineSet
272.241210938 591.9140625 m 1
 291.133789062 566.0859375 l 1
 116.076171875 438.043945312 l 2
 93.9169921875 421.8359375 87.1181640625 410.25390625 119.935546875 380.397460938 c 2
 252.455078125 259.834960938 l 2
 259.201171875 253.697265625 258.836914062 243.13671875 253.580078125 237.296875 c 2
 109.403320312 77.1005859375 l 2
 85.462890625 52.201171875 82.3544921875 33 103.045898438 33 c 2
 402.6875 33 l 1
 402.6875 1 l 1
 94.6875 1 l 2
 71.9560546875 1 61.6240234375 21.48046875 59.1044921875 30 c 0
 51.2158203125 56.6796875 71.04296875 83.373046875 85.9716796875 98.8994140625 c 2
 219.1484375 246.874023438 l 1
 97.919921875 357.165039062 l 2
 81.9091796875 371.719726562 66.9052734375 391.770507812 65.6142578125 412.80859375 c 0
 64.623046875 428.971679688 71.7265625 445.716796875 92.6875 461 c 2
 92.6875 461 210.606445312 546.108398438 272.241210938 591.9140625 c 1
EndSplineSet
EndChar
StartChar: uni066E.init
Encoding: 65545 -1 37
Width: 1000
VWidth: -36
Flags: HW
LayerCount: 2
Fore
SplineSet
655 341 m 1
 687 341 l 1
 687 68 l 0
 687 30.0703125 657.180664062 1 618 1 c 0
 329 1 l 1
 329 33 l 1
 618 33 l 0
 640.819335938 33 655 47.9296875 655 68 c 0
 655 341 l 1
EndSplineSet
EndChar
StartChar: uni066F.init
Encoding: 65562 -1 54
Width: 1000
VWidth: -36
Flags: HW
LayerCount: 2
Fore
SplineSet
305 32 m 9
 657 32 l 2
 681.505859375 32 696 50.966796875 696 70 c 2
 696 70 696 200.333007812 696 295 c 0
 696 320.90625 689.686523438 341.1640625 679.619140625 357.107421875 c 0
 644.567382812 412.614257812 556.266601562 420.239257812 506.681640625 388.559570312 c 0
 463.883789062 360.610351562 433.182617188 286.219726562 467.693359375 229.275390625 c 0
 511.46484375 156.633789062 595 166.390625 710 178 c 1
 710 146 l 1
 616.543945312 134.465820312 496.859375 118.870117188 440.295898438 212.7421875 c 0
 394.826171875 287.766601562 434.116210938 379.389648438 489.318359375 415.440429688 c 0
 551.604492188 455.233398438 659.670898438 448.62890625 706.67578125 374.193359375 c 0
 720.174804688 352.817382812 728 326.211914062 728 295 c 2
 728 70 l 2
 728 35.033203125 700.494140625 0 657 0 c 2
 305 0 l 17
 305 32 l 9
EndSplineSet
EndChar
StartChar: uni06A1.fina
Encoding: 65560 -1 51
Width: 1000
VWidth: -36
Flags: HW
LayerCount: 2
Fore
SplineSet
696 155 m 0
 696 180.90625 689.686523438 201.1640625 679.619140625 217.107421875 c 0
 644.567382812 272.614257812 556.266601562 280.239257812 506.681640625 248.559570312 c 0
 463.883789062 220.610351562 433.182617188 146.219726562 467.693359375 89.275390625 c 0
 503.866765474 29.2433112547 548 29 703 32 c 0
 934 32 l 1
 934 0 l 1
 707.5 0.0380859375 l 0
 548.499023438 -2.6015625 486.677129964 -4.23143234404 440.295898438 72.7421875 c 0
 394.826171875 147.766601562 434.116210938 239.389648438 489.318359375 275.440429688 c 0
 551.604492188 315.233398438 659.670898438 308.62890625 706.67578125 234.193359375 c 0
 720.174804688 212.817382812 728 186.211914062 728 155 c 2
 728 -129 l 2
 728 -163.966796875 700.494140625 -199 657 -199 c 2
 165 -199 l 2
 100.721679688 -199 50 -156.375 50 -89 c 2
 50 63 l 1
 82 63 l 1
 82 -89 l 2
 82 -137.625 115.278320312 -167 165 -167 c 2
 657 -167 l 2
 681.505859375 -167 696 -148.033203125 696 -129 c 2
 696 -129 696 60.3333333333 696 155 c 0
EndSplineSet
EndChar
StartChar: uni06BA.fina
Encoding: 65546 -1 38
Width: 574
VWidth: -36
Flags: HW
LayerCount: 2
Fore
SplineSet
574 33 m 1
 574 1 l 1
 432 1 l 1
 432 33 l 1
 574 33 l 1
EndSplineSet
Refer: 24 1722 N 1 0 0 1 0 0 2
EndChar
StartChar: uni06D2.fina
Encoding: 65558 -1 47
Width: 1000
VWidth: -36
Flags: HW
LayerCount: 2
Fore
SplineSet
803 -243 m 1
 803 -275 l 1
 365 -275 l 2
 260.059570312 -275 200.368164062 -229.619140625 185.000976562 -171.861328125 c 0
 167.69140625 -106.807617188 208.60546875 -34.25390625 283.920898438 -14.5283203125 c 0
 388.689453125 13.091796875 371.484375 44.7275390625 396.196289062 87.0908203125 c 0
 420.598135124 128.528539616 461.348444047 162.835787171 520.029663086 160.879191143 c 0
 563.280804515 159.437077074 604.523190076 135.513864747 627.178710938 92.4130859375 c 0
 650.578125 47.416015625 679.309570312 33 729 33 c 2
 803 33 l 1
 803 1 l 1
 729 1 l 2
 670.684570312 1 627.436523438 22.556640625 598.8046875 77.6181640625 c 0
 581.895181421 109.787594041 551.852012989 127.614163359 520.029663086 128.964891557 c 0
 474.328400571 130.904722655 443.336941581 104.078137966 423.787109375 70.880859375 c 0
 406.53125 41.2998046875 407.301757812 -15.0947265625 292.079101562 -45.4716796875 c 0
 232.741210938 -61.01171875 203.46484375 -116.803710938 215.924804688 -163.633789062 c 0
 226.5 -203.37890625 268.668945312 -243 365 -243 c 2
 803 -243 l 1
EndSplineSet
EndChar
